<svg width="760" height="481" viewBox="0 0 760 481" fill="none" xmlns="http://www.w3.org/2000/svg">
<path d="M639.132 268.222C639.516 286.427 637.004 304.578 631.69 321.994C631.504 322.627 631.28 323.259 631.057 323.892H521.502C523.068 316.18 525.554 308.684 528.908 301.564C538.025 282.214 552.91 265.654 567.609 249.206C587.853 226.543 607.613 204.066 610.739 174.594C618.763 186.827 625.168 200.048 629.792 213.928C624.13 216.025 618.934 219.211 614.497 223.305C613.269 224.459 611.967 226.134 612.6 227.734C613.195 229.073 614.832 229.52 616.284 229.818C619.782 230.488 623.28 231.157 626.778 231.79C629.531 232.348 632.322 232.869 635.113 233.39C637.566 244.845 638.912 256.509 639.132 268.222Z" fill="#F2F2F2"/>
<path d="M731.16 256.165C713.595 266.845 702.431 283.368 693.314 301.862C685.38 303.671 678.056 307.519 672.065 313.026C670.8 314.18 669.498 315.855 670.167 317.455C670.726 318.795 672.4 319.241 673.851 319.539C677.312 320.209 680.848 320.879 684.308 321.511C683.973 322.293 683.639 323.111 683.304 323.893H567.199C572.47 316.785 578.306 310.114 584.652 303.947C586.029 302.57 587.443 301.267 588.894 299.928C603.695 286.552 620.689 275.827 639.132 268.222C668.186 256.076 699.957 251.914 731.16 256.165Z" fill="#F2F2F2"/>
<path d="M586.55 323.892H483.172C482.608 315.614 482.658 307.305 483.321 299.034C487.452 247.94 515.25 199.266 557.189 169.793C551.83 188.883 554.584 207.862 560.166 226.915C559.385 227.176 558.603 227.399 557.896 227.696C552.235 229.794 547.039 232.98 542.602 237.074C541.374 238.228 540.071 239.902 540.704 241.502C541.262 242.842 542.936 243.289 544.388 243.586C547.886 244.256 551.384 244.926 554.845 245.559C557.636 246.117 560.427 246.638 563.217 247.196C564.52 247.419 565.822 247.68 567.125 247.94C567.311 248.387 567.423 248.796 567.609 249.206C574.158 267.254 581.303 285.451 584.652 303.946C585.481 308.587 586.053 313.271 586.364 317.975C586.476 319.947 586.55 321.92 586.55 323.892Z" fill="#F2F2F2"/>
<path d="M29 320.711C35.8969 331.022 43.3566 340.713 51.3247 349.711H691.675C699.643 340.713 707.103 331.022 714 320.711H29Z" fill="#3F3D56"/>
<path d="M247.689 223.511V326.071H319.539V223.511C319.541 222.773 319.305 222.055 318.868 221.461C318.431 220.867 317.814 220.429 317.109 220.211C316.777 220.101 316.429 220.047 316.079 220.051H251.159C250.704 220.05 250.254 220.139 249.833 220.312C249.412 220.486 249.03 220.74 248.707 221.062C248.385 221.383 248.129 221.765 247.955 222.185C247.78 222.605 247.69 223.056 247.689 223.511ZM275.729 258.751C275.748 256.729 276.565 254.797 278.001 253.374C279.438 251.951 281.378 251.153 283.399 251.153C285.421 251.153 287.361 251.951 288.798 253.374C290.234 254.797 291.05 256.729 291.069 258.751V270.651C291.059 272.678 290.246 274.619 288.809 276.049C287.372 277.479 285.427 278.282 283.399 278.282C281.372 278.282 279.427 277.479 277.99 276.049C276.552 274.619 275.74 272.678 275.729 270.651V258.751Z" fill="#2F2E41"/>
<path d="M247.471 322.789V332.679C247.472 333.191 247.676 333.682 248.037 334.046C248.398 334.409 248.888 334.615 249.401 334.619H317.831C318.343 334.617 318.834 334.411 319.196 334.047C319.558 333.684 319.761 333.192 319.761 332.679V322.789H247.471Z" fill="#3F3D56"/>
<path d="M134.66 68.99V256.25C134.662 258.636 135.611 260.924 137.298 262.612C138.986 264.299 141.274 265.248 143.66 265.25H421.16C423.547 265.248 425.835 264.299 427.522 262.612C429.209 260.924 430.158 258.636 430.16 256.25V68.99C430.154 66.6057 429.204 64.3208 427.517 62.6358C425.83 60.9508 423.544 60.003 421.16 60H143.66C141.276 60.003 138.99 60.9509 137.303 62.6359C135.616 64.3209 134.666 66.6057 134.66 68.99Z" fill="#3F3D56"/>
<path d="M141.17 71.32V253.94C141.172 255.215 141.68 256.437 142.581 257.339C143.483 258.24 144.705 258.748 145.98 258.75H418.85C420.125 258.748 421.347 258.24 422.249 257.339C423.15 256.437 423.658 255.215 423.66 253.94V71.32C423.66 70.0434 423.153 68.819 422.252 67.9154C421.35 67.0118 420.126 66.5028 418.85 66.5H145.98C144.703 66.5028 143.48 67.0118 142.578 67.9154C141.677 68.819 141.17 70.0434 141.17 71.32Z" fill="#FF7858"/>
<path d="M196.81 336.951C197.088 337.299 197.441 337.58 197.843 337.772C198.245 337.965 198.685 338.063 199.13 338.061H361.47C361.914 338.061 362.353 337.961 362.753 337.77C363.154 337.579 363.507 337.3 363.787 336.956C364.066 336.611 364.266 336.208 364.37 335.777C364.475 335.345 364.481 334.896 364.39 334.461L361.87 322.491C361.766 322.003 361.541 321.549 361.216 321.17C360.891 320.791 360.477 320.499 360.01 320.321C359.673 320.189 359.313 320.121 358.95 320.121H201.64C201.278 320.121 200.918 320.189 200.58 320.321C200.114 320.499 199.699 320.791 199.375 321.17C199.05 321.549 198.825 322.003 198.72 322.491L196.2 334.461C196.111 334.895 196.119 335.344 196.224 335.775C196.33 336.206 196.53 336.607 196.81 336.951Z" fill="#2F2E41"/>
<path d="M353.285 325.277H357.309C357.578 325.277 357.797 325.059 357.797 324.789V322.766C357.797 322.496 357.578 322.277 357.309 322.277H353.285C353.015 322.277 352.797 322.496 352.797 322.766V324.789C352.797 325.059 353.015 325.277 353.285 325.277Z" fill="#3F3D56"/>
<path d="M343.285 325.277H347.309C347.578 325.277 347.797 325.059 347.797 324.789V322.766C347.797 322.496 347.578 322.277 347.309 322.277H343.285C343.015 322.277 342.797 322.496 342.797 322.766V324.789C342.797 325.059 343.015 325.277 343.285 325.277Z" fill="#3F3D56"/>
<path d="M333.285 325.277H337.309C337.578 325.277 337.797 325.059 337.797 324.789V322.766C337.797 322.496 337.578 322.277 337.309 322.277H333.285C333.015 322.277 332.797 322.496 332.797 322.766V324.789C332.797 325.059 333.015 325.277 333.285 325.277Z" fill="#3F3D56"/>
<path d="M323.285 325.277H327.309C327.578 325.277 327.797 325.059 327.797 324.789V322.766C327.797 322.496 327.578 322.277 327.309 322.277H323.285C323.015 322.277 322.797 322.496 322.797 322.766V324.789C322.797 325.059 323.015 325.277 323.285 325.277Z" fill="#3F3D56"/>
<path d="M313.285 325.277H317.309C317.578 325.277 317.797 325.059 317.797 324.789V322.766C317.797 322.496 317.578 322.277 317.309 322.277H313.285C313.015 322.277 312.797 322.496 312.797 322.766V324.789C312.797 325.059 313.015 325.277 313.285 325.277Z" fill="#3F3D56"/>
<path d="M303.285 325.277H307.309C307.578 325.277 307.797 325.059 307.797 324.789V322.766C307.797 322.496 307.578 322.277 307.309 322.277H303.285C303.015 322.277 302.797 322.496 302.797 322.766V324.789C302.797 325.059 303.015 325.277 303.285 325.277Z" fill="#3F3D56"/>
<path d="M293.285 325.277H297.309C297.578 325.277 297.797 325.059 297.797 324.789V322.766C297.797 322.496 297.578 322.277 297.309 322.277H293.285C293.015 322.277 292.797 322.496 292.797 322.766V324.789C292.797 325.059 293.015 325.277 293.285 325.277Z" fill="#3F3D56"/>
<path d="M283.285 325.277H287.309C287.578 325.277 287.797 325.059 287.797 324.789V322.766C287.797 322.496 287.578 322.277 287.309 322.277H283.285C283.015 322.277 282.797 322.496 282.797 322.766V324.789C282.797 325.059 283.015 325.277 283.285 325.277Z" fill="#3F3D56"/>
<path d="M273.285 325.277H277.309C277.578 325.277 277.797 325.059 277.797 324.789V322.766C277.797 322.496 277.578 322.277 277.309 322.277H273.285C273.015 322.277 272.797 322.496 272.797 322.766V324.789C272.797 325.059 273.015 325.277 273.285 325.277Z" fill="#3F3D56"/>
<path d="M263.285 325.277H267.309C267.578 325.277 267.797 325.059 267.797 324.789V322.766C267.797 322.496 267.578 322.277 267.309 322.277H263.285C263.015 322.277 262.797 322.496 262.797 322.766V324.789C262.797 325.059 263.015 325.277 263.285 325.277Z" fill="#3F3D56"/>
<path d="M253.285 325.277H257.309C257.578 325.277 257.797 325.059 257.797 324.789V322.766C257.797 322.496 257.578 322.277 257.309 322.277H253.285C253.015 322.277 252.797 322.496 252.797 322.766V324.789C252.797 325.059 253.015 325.277 253.285 325.277Z" fill="#3F3D56"/>
<path d="M243.285 325.277H247.309C247.578 325.277 247.797 325.059 247.797 324.789V322.766C247.797 322.496 247.578 322.277 247.309 322.277H243.285C243.015 322.277 242.797 322.496 242.797 322.766V324.789C242.797 325.059 243.015 325.277 243.285 325.277Z" fill="#3F3D56"/>
<path d="M233.285 325.277H237.309C237.578 325.277 237.797 325.059 237.797 324.789V322.766C237.797 322.496 237.578 322.277 237.309 322.277H233.285C233.015 322.277 232.797 322.496 232.797 322.766V324.789C232.797 325.059 233.015 325.277 233.285 325.277Z" fill="#3F3D56"/>
<path d="M223.285 325.277H227.309C227.578 325.277 227.797 325.059 227.797 324.789V322.766C227.797 322.496 227.578 322.277 227.309 322.277H223.285C223.015 322.277 222.797 322.496 222.797 322.766V324.789C222.797 325.059 223.015 325.277 223.285 325.277Z" fill="#3F3D56"/>
<path d="M213.285 325.277H217.309C217.578 325.277 217.797 325.059 217.797 324.789V322.766C217.797 322.496 217.578 322.277 217.309 322.277H213.285C213.015 322.277 212.797 322.496 212.797 322.766V324.789C212.797 325.059 213.015 325.277 213.285 325.277Z" fill="#3F3D56"/>
<path d="M203.285 325.277H207.309C207.578 325.277 207.797 325.059 207.797 324.789V322.766C207.797 322.496 207.578 322.277 207.309 322.277H203.285C203.015 322.277 202.797 322.496 202.797 322.766V324.789C202.797 325.059 203.015 325.277 203.285 325.277Z" fill="#3F3D56"/>
<path d="M353.404 330.277H357.428C357.697 330.277 357.916 330.059 357.916 329.789V327.766C357.916 327.496 357.697 327.277 357.428 327.277H353.404C353.135 327.277 352.916 327.496 352.916 327.766V329.789C352.916 330.059 353.135 330.277 353.404 330.277Z" fill="#3F3D56"/>
<path d="M343.404 330.277H347.428C347.697 330.277 347.916 330.059 347.916 329.789V327.766C347.916 327.496 347.697 327.277 347.428 327.277H343.404C343.135 327.277 342.916 327.496 342.916 327.766V329.789C342.916 330.059 343.135 330.277 343.404 330.277Z" fill="#3F3D56"/>
<path d="M333.404 330.277H337.428C337.697 330.277 337.916 330.059 337.916 329.789V327.766C337.916 327.496 337.697 327.277 337.428 327.277H333.404C333.135 327.277 332.916 327.496 332.916 327.766V329.789C332.916 330.059 333.135 330.277 333.404 330.277Z" fill="#3F3D56"/>
<path d="M323.404 330.277H327.428C327.697 330.277 327.916 330.059 327.916 329.789V327.766C327.916 327.496 327.697 327.277 327.428 327.277H323.404C323.135 327.277 322.916 327.496 322.916 327.766V329.789C322.916 330.059 323.135 330.277 323.404 330.277Z" fill="#3F3D56"/>
<path d="M313.404 330.277H317.428C317.697 330.277 317.916 330.059 317.916 329.789V327.766C317.916 327.496 317.697 327.277 317.428 327.277H313.404C313.135 327.277 312.916 327.496 312.916 327.766V329.789C312.916 330.059 313.135 330.277 313.404 330.277Z" fill="#3F3D56"/>
<path d="M303.404 330.277H307.428C307.697 330.277 307.916 330.059 307.916 329.789V327.766C307.916 327.496 307.697 327.277 307.428 327.277H303.404C303.135 327.277 302.916 327.496 302.916 327.766V329.789C302.916 330.059 303.135 330.277 303.404 330.277Z" fill="#3F3D56"/>
<path d="M293.404 330.277H297.428C297.697 330.277 297.916 330.059 297.916 329.789V327.766C297.916 327.496 297.697 327.277 297.428 327.277H293.404C293.135 327.277 292.916 327.496 292.916 327.766V329.789C292.916 330.059 293.135 330.277 293.404 330.277Z" fill="#3F3D56"/>
<path d="M283.404 330.277H287.428C287.697 330.277 287.916 330.059 287.916 329.789V327.766C287.916 327.496 287.697 327.277 287.428 327.277H283.404C283.135 327.277 282.916 327.496 282.916 327.766V329.789C282.916 330.059 283.135 330.277 283.404 330.277Z" fill="#3F3D56"/>
<path d="M273.404 330.277H277.428C277.697 330.277 277.916 330.059 277.916 329.789V327.766C277.916 327.496 277.697 327.277 277.428 327.277H273.404C273.135 327.277 272.916 327.496 272.916 327.766V329.789C272.916 330.059 273.135 330.277 273.404 330.277Z" fill="#3F3D56"/>
<path d="M263.404 330.277H267.428C267.697 330.277 267.916 330.059 267.916 329.789V327.766C267.916 327.496 267.697 327.277 267.428 327.277H263.404C263.135 327.277 262.916 327.496 262.916 327.766V329.789C262.916 330.059 263.135 330.277 263.404 330.277Z" fill="#3F3D56"/>
<path d="M253.404 330.277H257.428C257.697 330.277 257.916 330.059 257.916 329.789V327.766C257.916 327.496 257.697 327.277 257.428 327.277H253.404C253.135 327.277 252.916 327.496 252.916 327.766V329.789C252.916 330.059 253.135 330.277 253.404 330.277Z" fill="#3F3D56"/>
<path d="M243.404 330.277H247.428C247.697 330.277 247.916 330.059 247.916 329.789V327.766C247.916 327.496 247.697 327.277 247.428 327.277H243.404C243.135 327.277 242.916 327.496 242.916 327.766V329.789C242.916 330.059 243.135 330.277 243.404 330.277Z" fill="#3F3D56"/>
<path d="M233.404 330.277H237.428C237.697 330.277 237.916 330.059 237.916 329.789V327.766C237.916 327.496 237.697 327.277 237.428 327.277H233.404C233.135 327.277 232.916 327.496 232.916 327.766V329.789C232.916 330.059 233.135 330.277 233.404 330.277Z" fill="#3F3D56"/>
<path d="M223.404 330.277H227.428C227.697 330.277 227.916 330.059 227.916 329.789V327.766C227.916 327.496 227.697 327.277 227.428 327.277H223.404C223.135 327.277 222.916 327.496 222.916 327.766V329.789C222.916 330.059 223.135 330.277 223.404 330.277Z" fill="#3F3D56"/>
<path d="M213.404 330.277H217.428C217.697 330.277 217.916 330.059 217.916 329.789V327.766C217.916 327.496 217.697 327.277 217.428 327.277H213.404C213.135 327.277 212.916 327.496 212.916 327.766V329.789C212.916 330.059 213.135 330.277 213.404 330.277Z" fill="#3F3D56"/>
<path d="M203.404 330.277H207.428C207.697 330.277 207.916 330.059 207.916 329.789V327.766C207.916 327.496 207.697 327.277 207.428 327.277H203.404C203.135 327.277 202.916 327.496 202.916 327.766V329.789C202.916 330.059 203.135 330.277 203.404 330.277Z" fill="#3F3D56"/>
<path d="M270.404 336.277H309.428C309.697 336.277 309.916 336.059 309.916 335.789V333.766C309.916 333.496 309.697 333.277 309.428 333.277H270.404C270.135 333.277 269.916 333.496 269.916 333.766V335.789C269.916 336.059 270.135 336.277 270.404 336.277Z" fill="#3F3D56"/>
<path d="M159.692 91.6557H415.016C415.281 91.6499 415.534 91.5403 415.72 91.3506C415.905 91.1608 416.009 90.9058 416.009 90.6404C416.009 90.3749 415.905 90.1199 415.72 89.9301C415.534 89.7404 415.281 89.6308 415.016 89.625H159.692C159.427 89.6308 159.174 89.7404 158.989 89.9301C158.803 90.1199 158.699 90.3749 158.699 90.6404C158.699 90.9058 158.803 91.1608 158.989 91.3506C159.174 91.5403 159.427 91.6499 159.692 91.6557Z" fill="#3F3D56"/>
<path d="M397.636 84.4434C400.922 84.4434 403.586 81.72 403.586 78.3604C403.586 75.0008 400.922 72.2773 397.636 72.2773C394.35 72.2773 391.686 75.0008 391.686 78.3604C391.686 81.72 394.35 84.4434 397.636 84.4434Z" fill="#3F3D56"/>
<path d="M377.079 84.4434C380.366 84.4434 383.03 81.72 383.03 78.3604C383.03 75.0008 380.366 72.2773 377.079 72.2773C373.793 72.2773 371.129 75.0008 371.129 78.3604C371.129 81.72 373.793 84.4434 377.079 84.4434Z" fill="#3F3D56"/>
<path d="M356.523 84.4434C359.809 84.4434 362.473 81.72 362.473 78.3604C362.473 75.0008 359.809 72.2773 356.523 72.2773C353.236 72.2773 350.572 75.0008 350.572 78.3604C350.572 81.72 353.236 84.4434 356.523 84.4434Z" fill="#3F3D56"/>
<path d="M170.98 74.8913C170.98 75.0351 171.007 75.1776 171.062 75.3107C171.116 75.4438 171.196 75.5649 171.298 75.6671C171.399 75.7692 171.519 75.8504 171.652 75.9061C171.784 75.9617 171.927 75.9906 172.07 75.9913H186.67C186.959 75.9845 187.234 75.8652 187.435 75.6587C187.637 75.4522 187.75 75.1749 187.75 74.8863C187.75 74.5976 187.637 74.3204 187.435 74.1139C187.234 73.9074 186.959 73.788 186.67 73.7812H172.07C171.779 73.7848 171.501 73.9035 171.297 74.1115C171.092 74.3195 170.979 74.5998 170.98 74.8913Z" fill="#3F3D56"/>
<path d="M170.98 79.0397C170.98 79.1835 171.007 79.326 171.062 79.4591C171.116 79.5923 171.196 79.7133 171.298 79.8155C171.399 79.9176 171.519 79.9989 171.652 80.0545C171.784 80.1101 171.927 80.1391 172.07 80.1397H186.67C186.959 80.1333 187.234 80.0141 187.436 79.8075C187.638 79.601 187.751 79.3236 187.751 79.0347C187.751 78.7458 187.638 78.4683 187.436 78.2618C187.234 78.0553 186.959 77.9361 186.67 77.9297H172.07C171.779 77.9332 171.501 78.0519 171.297 78.2599C171.092 78.4679 170.979 78.7482 170.98 79.0397Z" fill="#3F3D56"/>
<path d="M170.98 83.1781C170.979 83.4696 171.092 83.7499 171.297 83.9579C171.501 84.1659 171.779 84.2846 172.07 84.2881H186.67C186.959 84.2814 187.234 84.162 187.435 83.9555C187.637 83.749 187.75 83.4718 187.75 83.1831C187.75 82.8945 187.637 82.6172 187.435 82.4107C187.234 82.2042 186.959 82.0849 186.67 82.0781H172.07C171.927 82.0787 171.784 82.1077 171.652 82.1633C171.519 82.219 171.399 82.3002 171.298 82.4023C171.196 82.5045 171.116 82.6255 171.062 82.7587C171.007 82.8918 170.98 83.0343 170.98 83.1781Z" fill="#3F3D56"/>
<path d="M175.491 115.254H170.245C168.655 115.254 167.365 116.543 167.365 118.134C167.365 119.724 168.655 121.014 170.245 121.014H175.491C177.082 121.014 178.371 119.724 178.371 118.134C178.371 116.543 177.082 115.254 175.491 115.254Z" fill="#E6E6E6"/>
<path d="M235.491 115.254H230.245C228.655 115.254 227.365 116.543 227.365 118.134C227.365 119.724 228.655 121.014 230.245 121.014H235.491C237.082 121.014 238.371 119.724 238.371 118.134C238.371 116.543 237.082 115.254 235.491 115.254Z" fill="#E6E6E6"/>
<path d="M252.491 115.254H247.245C245.655 115.254 244.365 116.543 244.365 118.134C244.365 119.724 245.655 121.014 247.245 121.014H252.491C254.082 121.014 255.371 119.724 255.371 118.134C255.371 116.543 254.082 115.254 252.491 115.254Z" fill="#E6E6E6"/>
<path d="M219.171 114.773H186.565C184.975 114.773 183.686 116.063 183.686 117.653C183.686 119.244 184.975 120.533 186.565 120.533H219.171C220.762 120.533 222.051 119.244 222.051 117.653C222.051 116.063 220.762 114.773 219.171 114.773Z" fill="#E6E6E6"/>
<path d="M299.171 114.773H266.565C264.975 114.773 263.686 116.063 263.686 117.653C263.686 119.244 264.975 120.533 266.565 120.533H299.171C300.762 120.533 302.051 119.244 302.051 117.653C302.051 116.063 300.762 114.773 299.171 114.773Z" fill="#E6E6E6"/>
<path d="M191.491 128.254H186.245C184.655 128.254 183.365 129.543 183.365 131.134C183.365 132.724 184.655 134.014 186.245 134.014H191.491C193.082 134.014 194.371 132.724 194.371 131.134C194.371 129.543 193.082 128.254 191.491 128.254Z" fill="#E6E6E6"/>
<path d="M251.491 128.254H246.245C244.655 128.254 243.365 129.543 243.365 131.134C243.365 132.724 244.655 134.014 246.245 134.014H251.491C253.082 134.014 254.371 132.724 254.371 131.134C254.371 129.543 253.082 128.254 251.491 128.254Z" fill="#E6E6E6"/>
<path d="M268.491 128.254H263.245C261.655 128.254 260.365 129.543 260.365 131.134C260.365 132.724 261.655 134.014 263.245 134.014H268.491C270.082 134.014 271.371 132.724 271.371 131.134C271.371 129.543 270.082 128.254 268.491 128.254Z" fill="#E6E6E6"/>
<path d="M235.171 127.773H202.565C200.975 127.773 199.686 129.063 199.686 130.653C199.686 132.244 200.975 133.533 202.565 133.533H235.171C236.762 133.533 238.051 132.244 238.051 130.653C238.051 129.063 236.762 127.773 235.171 127.773Z" fill="#E6E6E6"/>
<path d="M315.171 127.773H282.565C280.975 127.773 279.686 129.063 279.686 130.653C279.686 132.244 280.975 133.533 282.565 133.533H315.171C316.762 133.533 318.051 132.244 318.051 130.653C318.051 129.063 316.762 127.773 315.171 127.773Z" fill="#E6E6E6"/>
<path d="M207.491 141.254H202.245C200.655 141.254 199.365 142.543 199.365 144.134C199.365 145.724 200.655 147.014 202.245 147.014H207.491C209.082 147.014 210.371 145.724 210.371 144.134C210.371 142.543 209.082 141.254 207.491 141.254Z" fill="#E6E6E6"/>
<path d="M267.491 141.254H262.245C260.655 141.254 259.365 142.543 259.365 144.134C259.365 145.724 260.655 147.014 262.245 147.014H267.491C269.082 147.014 270.371 145.724 270.371 144.134C270.371 142.543 269.082 141.254 267.491 141.254Z" fill="#E6E6E6"/>
<path d="M284.491 141.254H279.245C277.655 141.254 276.365 142.543 276.365 144.134C276.365 145.724 277.655 147.014 279.245 147.014H284.491C286.082 147.014 287.371 145.724 287.371 144.134C287.371 142.543 286.082 141.254 284.491 141.254Z" fill="#E6E6E6"/>
<path d="M251.171 140.773H218.565C216.975 140.773 215.686 142.063 215.686 143.653C215.686 145.244 216.975 146.533 218.565 146.533H251.171C252.762 146.533 254.051 145.244 254.051 143.653C254.051 142.063 252.762 140.773 251.171 140.773Z" fill="#E6E6E6"/>
<path d="M331.171 140.773H298.565C296.975 140.773 295.686 142.063 295.686 143.653C295.686 145.244 296.975 146.533 298.565 146.533H331.171C332.762 146.533 334.051 145.244 334.051 143.653C334.051 142.063 332.762 140.773 331.171 140.773Z" fill="#E6E6E6"/>
<path d="M223.491 154.254H218.245C216.655 154.254 215.365 155.543 215.365 157.134C215.365 158.724 216.655 160.014 218.245 160.014H223.491C225.082 160.014 226.371 158.724 226.371 157.134C226.371 155.543 225.082 154.254 223.491 154.254Z" fill="#E6E6E6"/>
<path d="M283.491 154.254H278.245C276.655 154.254 275.365 155.543 275.365 157.134C275.365 158.724 276.655 160.014 278.245 160.014H283.491C285.082 160.014 286.371 158.724 286.371 157.134C286.371 155.543 285.082 154.254 283.491 154.254Z" fill="#E6E6E6"/>
<path d="M300.491 154.254H295.245C293.655 154.254 292.365 155.543 292.365 157.134C292.365 158.724 293.655 160.014 295.245 160.014H300.491C302.082 160.014 303.371 158.724 303.371 157.134C303.371 155.543 302.082 154.254 300.491 154.254Z" fill="#E6E6E6"/>
<path d="M267.171 153.773H234.565C232.975 153.773 231.686 155.063 231.686 156.653C231.686 158.244 232.975 159.533 234.565 159.533H267.171C268.762 159.533 270.051 158.244 270.051 156.653C270.051 155.063 268.762 153.773 267.171 153.773Z" fill="#E6E6E6"/>
<path d="M235.491 205.945H230.245C228.655 205.945 227.365 207.235 227.365 208.825C227.365 210.416 228.655 211.705 230.245 211.705H235.491C237.082 211.705 238.371 210.416 238.371 208.825C238.371 207.235 237.082 205.945 235.491 205.945Z" fill="#E6E6E6"/>
<path d="M252.491 205.945H247.245C245.655 205.945 244.365 207.235 244.365 208.825C244.365 210.416 245.655 211.705 247.245 211.705H252.491C254.082 211.705 255.371 210.416 255.371 208.825C255.371 207.235 254.082 205.945 252.491 205.945Z" fill="#E6E6E6"/>
<path d="M299.171 206.426H266.565C264.975 206.426 263.686 207.715 263.686 209.306C263.686 210.896 264.975 212.186 266.565 212.186H299.171C300.762 212.186 302.051 210.896 302.051 209.306C302.051 207.715 300.762 206.426 299.171 206.426Z" fill="#E6E6E6"/>
<path d="M175.491 205.945H170.245C168.655 205.945 167.365 207.235 167.365 208.825C167.365 210.416 168.655 211.705 170.245 211.705H175.491C177.082 211.705 178.371 210.416 178.371 208.825C178.371 207.235 177.082 205.945 175.491 205.945Z" fill="#E6E6E6"/>
<path d="M219.171 206.426H186.565C184.975 206.426 183.686 207.715 183.686 209.306C183.686 210.896 184.975 212.186 186.565 212.186H219.171C220.762 212.186 222.051 210.896 222.051 209.306C222.051 207.715 220.762 206.426 219.171 206.426Z" fill="#E6E6E6"/>
<path d="M191.491 192.945H186.245C184.655 192.945 183.365 194.235 183.365 195.825C183.365 197.416 184.655 198.705 186.245 198.705H191.491C193.082 198.705 194.371 197.416 194.371 195.825C194.371 194.235 193.082 192.945 191.491 192.945Z" fill="#E6E6E6"/>
<path d="M251.491 192.945H246.245C244.655 192.945 243.365 194.235 243.365 195.825C243.365 197.416 244.655 198.705 246.245 198.705H251.491C253.082 198.705 254.371 197.416 254.371 195.825C254.371 194.235 253.082 192.945 251.491 192.945Z" fill="#E6E6E6"/>
<path d="M268.491 192.945H263.245C261.655 192.945 260.365 194.235 260.365 195.825C260.365 197.416 261.655 198.705 263.245 198.705H268.491C270.082 198.705 271.371 197.416 271.371 195.825C271.371 194.235 270.082 192.945 268.491 192.945Z" fill="#E6E6E6"/>
<path d="M235.171 193.426H202.565C200.975 193.426 199.686 194.715 199.686 196.306C199.686 197.896 200.975 199.186 202.565 199.186H235.171C236.762 199.186 238.051 197.896 238.051 196.306C238.051 194.715 236.762 193.426 235.171 193.426Z" fill="#E6E6E6"/>
<path d="M207.491 179.945H202.245C200.655 179.945 199.365 181.235 199.365 182.825C199.365 184.416 200.655 185.705 202.245 185.705H207.491C209.082 185.705 210.371 184.416 210.371 182.825C210.371 181.235 209.082 179.945 207.491 179.945Z" fill="#E6E6E6"/>
<path d="M267.491 179.945H262.245C260.655 179.945 259.365 181.235 259.365 182.825C259.365 184.416 260.655 185.705 262.245 185.705H267.491C269.082 185.705 270.371 184.416 270.371 182.825C270.371 181.235 269.082 179.945 267.491 179.945Z" fill="#E6E6E6"/>
<path d="M284.491 179.945H279.245C277.655 179.945 276.365 181.235 276.365 182.825C276.365 184.416 277.655 185.705 279.245 185.705H284.491C286.082 185.705 287.371 184.416 287.371 182.825C287.371 181.235 286.082 179.945 284.491 179.945Z" fill="#E6E6E6"/>
<path d="M251.171 180.426H218.565C216.975 180.426 215.686 181.715 215.686 183.306C215.686 184.896 216.975 186.186 218.565 186.186H251.171C252.762 186.186 254.051 184.896 254.051 183.306C254.051 181.715 252.762 180.426 251.171 180.426Z" fill="#E6E6E6"/>
<path d="M223.491 166.945H218.245C216.655 166.945 215.365 168.235 215.365 169.825C215.365 171.416 216.655 172.705 218.245 172.705H223.491C225.082 172.705 226.371 171.416 226.371 169.825C226.371 168.235 225.082 166.945 223.491 166.945Z" fill="#E6E6E6"/>
<path d="M283.491 166.945H278.245C276.655 166.945 275.365 168.235 275.365 169.825C275.365 171.416 276.655 172.705 278.245 172.705H283.491C285.082 172.705 286.371 171.416 286.371 169.825C286.371 168.235 285.082 166.945 283.491 166.945Z" fill="#E6E6E6"/>
<path d="M300.491 166.945H295.245C293.655 166.945 292.365 168.235 292.365 169.825C292.365 171.416 293.655 172.705 295.245 172.705H300.491C302.082 172.705 303.371 171.416 303.371 169.825C303.371 168.235 302.082 166.945 300.491 166.945Z" fill="#E6E6E6"/>
<path d="M267.171 167.426H234.565C232.975 167.426 231.686 168.715 231.686 170.306C231.686 171.896 232.975 173.186 234.565 173.186H267.171C268.762 173.186 270.051 171.896 270.051 170.306C270.051 168.715 268.762 167.426 267.171 167.426Z" fill="#E6E6E6"/>
<path d="M66.8303 319.897C67.2708 321.18 68.1066 322.29 69.2175 323.068C70.3284 323.846 71.6573 324.252 73.0134 324.228L99.5052 323.546C100.871 323.52 102.192 323.052 103.27 322.212C104.348 321.373 105.125 320.207 105.486 318.889L109.235 278.802C110.565 279.405 112.013 279.702 113.473 279.673C116.034 279.609 118.465 278.529 120.231 276.673C121.997 274.816 122.953 272.334 122.889 269.772C122.824 267.211 121.745 264.78 119.888 263.014C118.032 261.248 115.55 260.292 112.988 260.356C112.404 260.354 111.822 260.415 111.252 260.537C110.631 259.865 109.877 259.332 109.037 258.969C108.198 258.607 107.292 258.425 106.378 258.434L65.6272 259.486C65.2892 259.499 64.9529 259.54 64.622 259.611C63.7284 259.778 62.8808 260.134 62.1363 260.655C61.3918 261.177 60.7676 261.852 60.3059 262.635C59.8442 263.418 59.5556 264.291 59.4595 265.195C59.3634 266.099 59.4621 267.013 59.7489 267.876L66.8303 319.897ZM110.004 276.08L112.671 266.528C112.975 265.424 112.982 264.26 112.692 263.153C112.821 263.153 112.935 263.091 113.065 263.091C114.894 263.053 116.663 263.742 117.985 265.007C119.307 266.272 120.073 268.009 120.116 269.838C120.159 271.667 119.475 273.439 118.214 274.764C116.953 276.089 115.217 276.86 113.388 276.908C112.206 276.945 111.036 276.659 110.004 276.08Z" fill="#2F2E41"/>
<path d="M64.6211 259.612C65.4893 264.576 75.2502 268.066 86.9869 267.459C97.7797 266.962 106.604 263.172 108.221 258.681C107.623 258.504 107.001 258.421 106.377 258.435L65.6263 259.487C65.2882 259.5 64.9519 259.542 64.6211 259.612Z" fill="#3F3D56"/>
<path d="M89.138 297.867C89.1917 297.854 89.2427 297.831 89.2889 297.801L95.0421 294.035C95.1116 293.99 95.1688 293.928 95.2083 293.855C95.2479 293.782 95.2686 293.7 95.2687 293.617C95.2687 293.534 95.248 293.452 95.2085 293.379C95.169 293.306 95.1119 293.244 95.0424 293.199L89.0626 289.282C89.0077 289.246 88.9462 289.221 88.8816 289.208C88.817 289.196 88.7506 289.196 88.6861 289.209C88.6216 289.223 88.5604 289.249 88.506 289.286C88.4516 289.323 88.405 289.37 88.3689 289.425C88.3328 289.48 88.308 289.542 88.2958 289.606C88.2836 289.671 88.2843 289.737 88.2978 289.802C88.3114 289.866 88.3375 289.927 88.3747 289.982C88.4119 290.036 88.4595 290.082 88.5147 290.118L93.8556 293.616L88.7416 296.964C88.6426 297.029 88.5697 297.127 88.536 297.24C88.5023 297.354 88.5099 297.475 88.5574 297.583C88.605 297.692 88.6894 297.78 88.7957 297.832C88.902 297.884 89.0233 297.896 89.138 297.867Z" fill="#FF7858"/>
<path d="M80.051 298.288C80.1475 298.263 80.2346 298.211 80.301 298.136C80.3674 298.062 80.4101 297.97 80.4236 297.871C80.4372 297.772 80.4209 297.672 80.377 297.583C80.3331 297.493 80.2635 297.419 80.1771 297.369L74.874 294.329L79.9996 290.522C80.0523 290.483 80.0967 290.434 80.1304 290.377C80.1641 290.321 80.1863 290.258 80.1959 290.194C80.2055 290.129 80.2022 290.062 80.1862 289.999C80.1702 289.935 80.1418 289.875 80.1026 289.823C80.0635 289.77 80.0144 289.726 79.9581 289.692C79.9018 289.658 79.8394 289.636 79.7745 289.626C79.7096 289.617 79.6434 289.62 79.5798 289.636C79.5161 289.652 79.4563 289.681 79.4036 289.72L73.665 293.982C73.5983 294.032 73.545 294.097 73.5099 294.172C73.4747 294.247 73.4589 294.33 73.4638 294.413C73.4686 294.496 73.4941 294.576 73.5378 294.647C73.5815 294.717 73.6421 294.776 73.7142 294.817L79.6794 298.237C79.7919 298.301 79.9252 298.32 80.051 298.288Z" fill="#FF7858"/>
<path d="M88.5663 301.169C88.6147 301.157 88.6609 301.137 88.7033 301.111C88.7595 301.077 88.8084 301.032 88.8472 300.979C88.886 300.926 88.914 300.866 88.9295 300.802C88.9451 300.738 88.9479 300.672 88.9379 300.607C88.9278 300.542 88.905 300.48 88.8708 300.424L80.7154 287.015C80.646 286.903 80.5349 286.822 80.4063 286.791C80.2776 286.76 80.142 286.782 80.029 286.85C79.9161 286.919 79.835 287.03 79.8035 287.158C79.772 287.287 79.7926 287.423 79.8609 287.536L88.0164 300.944C88.0721 301.036 88.1555 301.107 88.2545 301.147C88.3534 301.187 88.4627 301.195 88.5663 301.169Z" fill="#FF7858"/>
<path d="M636.15 393.749C635.54 394.059 634.92 394.369 634.31 394.669C618.51 402.569 605.87 407.059 588.58 411.979C587.12 395.679 585.71 367.029 584.34 349.269C583.98 344.659 583.62 340.789 583.27 338.059C583.182 336.607 582.885 335.176 582.39 333.809L582.45 338.059L582.6 349.269L583.47 413.379C561.962 419.069 539.869 422.254 517.63 422.869C516.47 422.899 515.33 422.919 514.23 422.939C513.84 422.949 513.46 422.959 513.08 422.959C511.83 422.969 510.59 422.979 509.34 422.979C485.904 422.996 462.553 420.165 439.8 414.549C440.29 398.419 440.78 370.089 441.25 349.269C441.35 345.199 441.44 341.409 441.54 338.059C441.73 330.899 441.93 325.739 442.12 324.009C441.951 324.315 441.82 324.641 441.73 324.979C440.804 329.291 440.172 333.661 439.84 338.059C439.49 341.409 439.14 345.199 438.79 349.269C436.93 370.899 434.99 400.309 432.99 412.779C421.085 409.529 409.404 405.51 398.02 400.749C392.02 398.249 386.127 395.552 380.34 392.659C381.44 385.459 382.59 377.389 383.77 369.019C384.69 362.529 385.64 355.859 386.61 349.269C388.11 339.089 439.07 229.159 451.08 225.309L451.38 225.229L451.59 225.319L472.04 219.039L475.03 218.119L477.04 217.499L484.12 212.109L487.97 209.179L491.58 206.429L498.64 201.059L542.35 203.749L550.86 224.239L569.92 231.209L570.25 231.059L570.54 230.939L570.84 231.019C582.846 234.868 593.177 242.704 600.12 253.229C601.06 254.639 602.2 256.499 603.49 258.749C604.59 260.659 605.79 262.839 607.09 265.249C608.94 268.679 610.96 272.549 613.1 276.739C613.57 277.659 614.05 278.599 614.53 279.549C615.42 281.309 616.323 283.105 617.24 284.939C619.37 289.189 621.57 293.629 623.77 298.139C625.68 302.049 627.61 310.089 629.51 320.319C631.08 328.819 632.64 338.839 634.15 349.269C636.13 362.789 634.02 378.979 635.81 391.419C635.92 392.209 636.04 392.979 636.15 393.749Z" fill="#3F3D56"/>
<path d="M507.954 193.704C536.03 193.704 558.79 170.944 558.79 142.868C558.79 114.791 536.03 92.0312 507.954 92.0312C479.877 92.0312 457.117 114.791 457.117 142.868C457.117 170.944 479.877 193.704 507.954 193.704Z" fill="#FFB6B6"/>
<path opacity="0.2" d="M426.658 320.276L435.155 287.484L442.658 315.78L426.658 320.276Z" fill="black"/>
<path d="M652.769 298.911C649.729 340.791 652.879 359.231 636.099 393.761C620.832 401.234 604.929 407.331 588.579 411.981C586.879 412.461 585.176 412.928 583.469 413.381C561.962 419.071 539.868 422.256 517.629 422.871C516.469 422.901 515.329 422.921 514.229 422.941C513.839 422.951 513.459 422.961 513.079 422.961C511.829 422.971 510.589 422.981 509.339 422.981C485.903 422.998 462.552 420.168 439.799 414.551C437.519 413.991 435.249 413.401 432.989 412.781C421.085 409.531 409.404 405.512 398.019 400.751C392.019 398.251 386.126 395.554 380.339 392.661C379.029 392.001 377.719 391.341 376.429 390.661C369.799 379.001 366.029 364.821 365.949 347.781C370.539 318.421 642.629 273.591 652.769 298.911Z" fill="#2F2E41"/>
<path opacity="0.2" d="M652.761 306.08C652.917 303.487 653.09 300.809 653.293 298.02C643.153 272.7 371.063 317.53 366.473 346.89C366.485 349.582 366.6 352.194 366.794 354.745C377.91 325.767 636.399 283.159 652.761 306.08Z" fill="black"/>
<path d="M359.182 300.885L381.515 289.718L362.904 239.468L357.999 214.126C357.362 210.833 355.872 207.766 353.677 205.23C351.483 202.694 348.662 200.778 345.495 199.674C342.329 198.57 338.928 198.316 335.633 198.938C332.337 199.56 329.263 201.036 326.717 203.218C322.944 206.452 320.575 211.026 320.11 215.974C319.644 220.921 321.12 225.856 324.224 229.737L342.431 252.496L359.182 300.885Z" fill="#FFB6B6"/>
<path d="M381.516 280.413L351.738 295.302L374.337 366.111C375.96 371.195 378.869 375.775 382.782 379.404C386.695 383.034 391.48 385.591 396.672 386.827C403.075 388.351 409.796 387.797 415.862 385.245C421.928 382.692 427.024 378.274 430.41 372.63L490.335 269.916C494.582 262.838 495.892 254.381 493.987 246.35C492.082 238.318 487.112 231.35 480.139 226.934C476.389 224.559 472.18 223 467.788 222.359C463.395 221.718 458.916 222.009 454.644 223.213C450.371 224.417 446.399 226.507 442.988 229.348C439.576 232.188 436.801 235.715 434.843 239.699L398.267 317.636L381.516 280.413Z" fill="#3F3D56"/>
<path d="M571.661 170.893C582.303 146.494 576.274 124.043 563.301 112.133V112.123C558.201 100.693 551.421 91.8725 543.661 89.8025C539.911 87.3925 536.271 84.5625 532.231 83.1225C530.349 82.4181 528.344 82.1018 526.337 82.1929C524.33 82.284 522.361 82.7805 520.551 83.6525L518.491 83.1025C516.741 78.6325 514.691 78.5425 512.411 81.4825C503.631 77.3925 495.721 75.5625 488.681 75.5625C465.721 75.5625 452.141 95.0025 448.541 118.503L467.731 123.613L474.401 112.983L471.321 124.573L481.911 127.383C498.031 148.373 478.741 196.793 454.291 223.733C460.111 222.123 465.908 220.763 471.681 219.653L492.661 188.893L479.661 216.893C486.411 215.903 495.021 216.853 504.431 218.763C507.601 214.623 509.271 209.102 507.631 204.182C510.312 209.371 512.162 214.949 513.111 220.713C532.971 225.563 560.061 228.053 574.661 229.893C586.457 226.042 586.489 182.553 571.661 170.893Z" fill="#2F2E41"/>
<path d="M578.585 87.901C586.38 105.354 570.652 112.861 556.244 112.649C543.225 112.458 532.16 103.311 531.496 90.3079C531.176 84.0635 533.351 77.948 537.541 73.3068C541.731 68.6655 547.593 65.8788 553.837 65.5596C566.84 64.895 573.276 76.0123 578.585 87.901Z" fill="#2F2E41"/>
</svg>
