<svg
  xmlns="http://www.w3.org/2000/svg"
  xmlns:xlink="http://www.w3.org/1999/xlink"
  viewBox="0 0 500 500"
  width="500"
  height="500"
  preserveAspectRatio="xMidYMid meet"
  style="width: 100%; height: 100%; transform: translate3d(0px, 0px, 0px); content-visibility: visible;"
>
  <defs>
    <clipPath id="__lottie_element_625">
      <rect width="500" height="500" x="0" y="0"></rect>
    </clipPath>
  </defs>
  <g clip-path="url(#__lottie_element_625)">
    <g
      transform="matrix(1,0,0,1,29.576995849609375,28.699996948242188)"
      opacity="1"
      style="display: block;"
    >
      <g
        opacity="1"
        transform="matrix(1,0,0,1,220.92300415039062,221.3000030517578)"
      >
        <path
          stroke-linecap="round"
          stroke-linejoin="round"
          fill-opacity="0"
          stroke="rgb(31,47,88)"
          stroke-opacity="1"
          stroke-width="16"
          d=" M158.3560028076172,181.3000030517578 C170.82000732421875,181.3000030517578 180.9239959716797,171.1959991455078 180.9239959716797,158.73199462890625 C180.9239959716797,158.73199462890625 180.9239959716797,-158.73199462890625 180.9239959716797,-158.73199462890625 C180.9239959716797,-171.1959991455078 170.82000732421875,-181.3000030517578 158.3560028076172,-181.3000030517578 C158.3560028076172,-181.3000030517578 -158.35499572753906,-181.3000030517578 -158.35499572753906,-181.3000030517578 C-170.81900024414062,-181.3000030517578 -180.92300415039062,-171.1959991455078 -180.92300415039062,-158.73199462890625 C-180.92300415039062,-158.73199462890625 -180.92300415039062,158.73199462890625 -180.92300415039062,158.73199462890625 C-180.92300415039062,171.1959991455078 -170.81900024414062,181.3000030517578 -158.35499572753906,181.3000030517578 C-158.35499572753906,181.3000030517578 158.3560028076172,181.3000030517578 158.3560028076172,181.3000030517578z"
        ></path>
      </g>
      <g opacity="1" transform="matrix(1,0,0,1,0,0)">
        <path
          stroke-linecap="round"
          stroke-linejoin="round"
          fill-opacity="0"
          stroke="rgb(31,47,88)"
          stroke-opacity="1"
          stroke-width="16"
          d=" M40,130.2740020751953 C40,130.2740020751953 401.8479919433594,130.2740020751953 401.8479919433594,130.2740020751953"
        ></path>
      </g>
      <g opacity="1" transform="matrix(1,0,0,1,0,0)">
        <path
          stroke-linecap="round"
          stroke-linejoin="round"
          fill-opacity="0"
          stroke="rgb(31,47,88)"
          stroke-opacity="1"
          stroke-width="16"
          d=" M220.5469970703125,85.13700103759766 C220.5469970703125,85.13700103759766 356.7099914550781,85.13700103759766 356.7099914550781,85.13700103759766"
        ></path>
      </g>
    </g>
    <g
      transform="matrix(1,0,0,1,29.576004028320312,28.699996948242188)"
      opacity="1"
      style="display: block;"
    >
      <g opacity="1" transform="matrix(1,0,0,1,0,0)">
        <path
          stroke-linecap="round"
          stroke-linejoin="round"
          fill-opacity="0"
          stroke="rgb(31,47,88)"
          stroke-opacity="1"
          stroke-width="16"
          d=" M176.16299438476562,85.88899993896484 C176.16299438476562,85.88899993896484 176.16299438476562,85.88899993896484 176.16299438476562,85.88899993896484z"
        ></path>
      </g>
    </g>
    <g
      transform="matrix(1,0,0,1,29.576995849609375,28.699996948242188)"
      opacity="1"
      style="display: block;"
    >
      <g opacity="1" transform="matrix(1,0,0,1,0,0)">
        <path
          stroke-linecap="round"
          stroke-linejoin="round"
          fill-opacity="0"
          stroke="rgb(31,47,88)"
          stroke-opacity="1"
          stroke-width="16"
          d=" M132.52999877929688,85.88899993896484 C132.52999877929688,85.88899993896484 132.52999877929688,85.88899993896484 132.52999877929688,85.88899993896484z"
        ></path>
      </g>
    </g>
    <g
      transform="matrix(1,0,0,1,29.576995849609375,28.699996948242188)"
      opacity="1"
      style="display: block;"
    >
      <g opacity="1" transform="matrix(1,0,0,1,0,0)">
        <path
          stroke-linecap="round"
          stroke-linejoin="round"
          fill-opacity="0"
          stroke="rgb(31,47,88)"
          stroke-opacity="1"
          stroke-width="16"
          d=" M89.6500015258789,85.88899993896484 C89.6500015258789,85.88899993896484 89.6500015258789,85.88899993896484 89.6500015258789,85.88899993896484z"
        ></path>
      </g>
    </g>
    <g
      transform="matrix(1,0,0,1,120.65998840332031,164.8629913330078)"
      opacity="1"
      style="display: block;"
    >
      <g
        opacity="1"
        transform="matrix(1,0,0,1,129.46400451660156,130.2740020751953)"
      >
        <path
          stroke-linecap="round"
          stroke-linejoin="round"
          fill-opacity="0"
          stroke="rgb(190,70,247)"
          stroke-opacity="1"
          stroke-width="16"
          d=" M67.70500183105469,0 C67.70500183105469,-4.2179999351501465 67.2020034790039,-8.309000015258789 66.46399688720703,-12.312999725341797 C66.46399688720703,-12.312999725341797 89.46399688720703,-25.591999053955078 89.46399688720703,-25.591999053955078 C89.46399688720703,-25.591999053955078 66.8949966430664,-64.68199920654297 66.8949966430664,-64.68199920654297 C66.8949966430664,-64.68199920654297 43.72100067138672,-51.301998138427734 43.72100067138672,-51.301998138427734 C37.51100158691406,-56.599998474121094 30.413999557495117,-60.77000045776367 22.56800079345703,-63.558998107910156 C22.56800079345703,-63.558998107910156 22.56800079345703,-90.27400207519531 22.56800079345703,-90.27400207519531 C22.56800079345703,-90.27400207519531 -22.569000244140625,-90.27400207519531 -22.569000244140625,-90.27400207519531 C-22.569000244140625,-90.27400207519531 -22.569000244140625,-63.558998107910156 -22.569000244140625,-63.558998107910156 C-30.415000915527344,-60.77000045776367 -37.512001037597656,-56.599998474121094 -43.72100067138672,-51.301998138427734 C-43.72100067138672,-51.301998138427734 -66.89600372314453,-64.68199920654297 -66.89600372314453,-64.68199920654297 C-66.89600372314453,-64.68199920654297 -89.46399688720703,-25.591999053955078 -89.46399688720703,-25.591999053955078 C-89.46399688720703,-25.591999053955078 -66.46499633789062,-12.312999725341797 -66.46499633789062,-12.312999725341797 C-67.2030029296875,-8.309000015258789 -67.70600128173828,-4.2179999351501465 -67.70600128173828,0 C-67.70600128173828,4.2179999351501465 -67.2030029296875,8.309000015258789 -66.46499633789062,12.312999725341797 C-66.46499633789062,12.312999725341797 -89.46399688720703,25.591999053955078 -89.46399688720703,25.591999053955078 C-89.46399688720703,25.591999053955078 -66.89600372314453,64.68199920654297 -66.89600372314453,64.68199920654297 C-66.89600372314453,64.68199920654297 -43.72100067138672,51.301998138427734 -43.72100067138672,51.301998138427734 C-37.512001037597656,56.599998474121094 -30.415000915527344,60.77000045776367 -22.569000244140625,63.558998107910156 C-22.569000244140625,63.558998107910156 -22.569000244140625,90.27400207519531 -22.569000244140625,90.27400207519531 C-22.569000244140625,90.27400207519531 22.56800079345703,90.27400207519531 22.56800079345703,90.27400207519531 C22.56800079345703,90.27400207519531 22.56800079345703,63.558998107910156 22.56800079345703,63.558998107910156 C30.413999557495117,60.77000045776367 37.51100158691406,56.599998474121094 43.72100067138672,51.301998138427734 C43.72100067138672,51.301998138427734 66.8949966430664,64.68199920654297 66.8949966430664,64.68199920654297 C66.8949966430664,64.68199920654297 89.46399688720703,25.591999053955078 89.46399688720703,25.591999053955078 C89.46399688720703,25.591999053955078 66.46399688720703,12.312999725341797 66.46399688720703,12.312999725341797 C67.2020034790039,8.309000015258789 67.70500183105469,4.2179999351501465 67.70500183105469,0z"
        ></path>
      </g>
      <g
        opacity="1"
        transform="matrix(1,0,0,1,129.46400451660156,130.2729949951172)"
      >
        <path
          stroke-linecap="round"
          stroke-linejoin="round"
          fill-opacity="0"
          stroke="rgb(190,70,247)"
          stroke-opacity="1"
          stroke-width="16"
          d=" M22.56800079345703,0.0010000000474974513 C22.56800079345703,12.46500015258789 12.46399974822998,22.569000244140625 0,22.569000244140625 C-12.46500015258789,22.569000244140625 -22.569000244140625,12.46500015258789 -22.569000244140625,0.0010000000474974513 C-22.569000244140625,-12.463000297546387 -12.46500015258789,-22.56800079345703 0,-22.56800079345703 C12.46399974822998,-22.56800079345703 22.56800079345703,-12.463000297546387 22.56800079345703,0.0010000000474974513z"
        ></path>
      </g>
    </g>
    <g
      transform="matrix(0.9612616896629333,-0.27563735842704773,0.27563735842704773,0.9612616896629333,236.48341369628906,251.19459533691406)"
      opacity="1"
      style="display: block;"
    >
      <g opacity="1" transform="matrix(1,0,0,1,1,46)">
        <path
          stroke-linecap="round"
          stroke-linejoin="round"
          fill-opacity="0"
          stroke="rgb(190,70,247)"
          stroke-opacity="1"
          stroke-width="16"
          d="M0 0"
        ></path>
      </g>
    </g>
    <g
      transform="matrix(-0.9612616896629333,0.27563735842704773,0.27563735842704773,0.9612616896629333,238.4059295654297,250.643310546875)"
      opacity="1"
      style="display: block;"
    >
      <g opacity="1" transform="matrix(1,0,0,1,1,46)">
        <path
          stroke-linecap="round"
          stroke-linejoin="round"
          fill-opacity="0"
          stroke="rgb(190,70,247)"
          stroke-opacity="1"
          stroke-width="16"
          d="M0 0"
        ></path>
      </g>
    </g>
  </g>
</svg>
