<svg width="512" height="512" viewBox="0 0 512 512" fill="none" xmlns="http://www.w3.org/2000/svg">
<path d="M18.159 337.971C15.416 337.971 12.657 337.341 10.081 336.064C3.863 332.979 0 326.748 0 319.804V77.8566C0 52.9716 20.223 32.7266 45.079 32.7266H307.071C331.928 32.7266 352.151 52.9716 352.151 77.8566V140.659C352.151 146.734 347.226 151.659 341.151 151.659C335.076 151.659 330.151 146.734 330.151 140.659V77.8566C330.151 65.1026 319.798 54.7266 307.071 54.7266H45.079C32.353 54.7276 22 65.1036 22 77.8566V312.027L51.31 289.76C56.446 285.859 62.823 283.711 69.268 283.711H119.124C125.199 283.711 130.124 288.636 130.124 294.711C130.124 300.786 125.199 305.711 119.124 305.711H69.268C67.6 305.711 65.949 306.268 64.618 307.278L29.106 334.257C25.873 336.715 22.033 337.97 18.159 337.971Z" fill="#BE46F7"/>
<path d="M444.897 204.723H175.229C169.154 204.723 164.229 199.798 164.229 193.723C164.229 187.648 169.154 182.723 175.229 182.723H444.896C450.971 182.723 455.896 187.648 455.896 193.723C455.897 199.798 450.972 204.723 444.897 204.723Z" fill="black"/>
<path d="M444.897 255.555H175.229C169.154 255.555 164.229 250.63 164.229 244.555C164.229 238.48 169.154 233.555 175.229 233.555H444.896C450.971 233.555 455.896 238.48 455.896 244.555C455.896 250.63 450.972 255.555 444.897 255.555Z" fill="#BE46F7"/>
<path d="M374.995 306.441H175.229C169.154 306.441 164.229 301.516 164.229 295.441C164.229 289.366 169.154 284.441 175.229 284.441H374.995C381.07 284.441 385.995 289.366 385.995 295.441C385.995 301.517 381.07 306.441 374.995 306.441Z" fill="black"/>
<path d="M237.257 387.066H175.229C169.154 387.066 164.229 382.141 164.229 376.066C164.229 369.991 169.154 365.066 175.229 365.066H237.257C243.332 365.066 248.257 369.991 248.257 376.066C248.257 382.141 243.332 387.066 237.257 387.066Z" fill="#BE46F7"/>
<path d="M492.721 479.276C488.608 479.276 484.532 477.944 481.1 475.337L481.099 475.336L440.022 444.129C438.186 442.734 435.906 441.966 433.602 441.966H158.542C130.741 441.966 108.123 419.323 108.123 391.489V180.137C108.123 152.304 130.741 129.66 158.542 129.66H461.58C489.381 129.66 511.999 152.304 511.999 180.137V459.99C511.999 467.362 507.898 473.977 501.298 477.253C498.564 478.608 495.633 479.276 492.721 479.276ZM158.542 151.659C142.872 151.659 130.123 164.434 130.123 180.136V391.489C130.123 407.191 142.872 419.966 158.542 419.966H433.602C440.684 419.966 447.691 422.326 453.331 426.612L489.999 454.469V180.137C489.999 164.435 477.25 151.66 461.58 151.66H158.542V151.659Z" fill="black"/>
</svg>
