<svg width="512" height="512" viewBox="0 0 512 512" fill="none" xmlns="http://www.w3.org/2000/svg">
<g clip-path="url(#clip0_176_738)">
<path d="M62.5771 87.5234C60.7311 87.5234 58.8821 87.0594 57.2131 86.1264C53.7341 84.1834 51.5781 80.5094 51.5781 76.5234V11.0004C52.1191 -3.57856 73.0421 -3.56756 73.5781 11.0004V56.8324L85.4641 49.5134C89.0011 47.3344 93.4661 47.3354 97.0031 49.5154L108.857 56.8224V11.0004C109.398 -3.57856 130.321 -3.56756 130.857 11.0004V76.5234C130.857 80.5094 128.7 84.1844 125.219 86.1274C121.739 88.0714 117.478 87.9794 114.085 85.8874L91.2281 71.7994L68.3451 85.8904C66.5801 86.9784 64.5801 87.5234 62.5771 87.5234Z" fill="#BE46F7"/>
<path d="M425.567 381.151C403.951 381.151 386.365 363.577 386.365 341.977C388.336 290.092 462.78 290.079 464.742 341.978C464.742 363.577 447.168 381.151 425.567 381.151ZM425.567 324.802C416.082 324.802 408.365 332.507 408.365 341.976C409.23 364.715 441.882 364.736 442.742 341.976C442.742 332.507 435.038 324.802 425.567 324.802Z" fill="#BE46F7"/>
<path d="M350.107 480.155H93.9982C25.3872 477.546 25.4682 379.239 93.9982 376.653H229.082C268.539 375.153 268.481 318.638 229.082 317.151H102.834C34.2752 314.542 34.3272 216.262 102.834 213.677H348.384C422.23 210.866 422.202 105.014 348.384 102.23H171.434C156.855 101.689 156.866 80.7665 171.434 80.2305H348.384C451.412 84.1505 451.305 231.793 348.384 235.677H102.834C63.4282 237.177 63.4582 293.665 102.834 295.151H229.082C297.664 297.762 297.64 396.068 229.082 398.653H93.9982C54.5692 400.154 54.5712 456.669 93.9982 458.155H350.107C364.687 458.696 364.676 479.619 350.107 480.155Z" fill="#BE46F7"/>
<path d="M171.435 182.435H11C4.925 182.435 0 177.51 0 171.435V11C0 4.925 4.925 0 11 0H171.435C177.51 0 182.435 4.925 182.435 11V171.435C182.435 177.51 177.51 182.435 171.435 182.435ZM22 160.435H160.435V22H22V160.435Z" fill="black"/>
<path d="M425.567 512C403.978 512 383.51 508.38 367.935 501.808C342.852 491.224 339.107 476.807 339.107 469.156C339.107 449.387 360.234 434.194 395.621 428.512C401.615 427.548 407.264 431.631 408.226 437.629C409.189 443.627 405.107 449.271 399.109 450.233C373.185 454.395 361.107 463.985 361.107 469.155C361.107 471.993 365.921 477.079 376.488 481.538C401.739 492.696 449.365 492.703 474.621 481.538C485.187 477.078 490 471.993 490 469.155C490 463.987 477.922 454.399 451.997 450.233C445.999 449.269 441.918 443.625 442.882 437.627C443.846 431.629 449.492 427.55 455.487 428.512C490.874 434.199 512 449.393 512 469.156C512 476.807 508.255 491.223 483.177 501.808C467.603 508.38 447.145 512 425.567 512Z" fill="black"/>
<path d="M425.568 473.551C425.545 473.551 425.52 473.551 425.497 473.551C420.132 473.516 412.181 471.677 404.772 463.114L388.723 444.494C388.563 444.308 388.41 444.118 388.262 443.922C386.164 441.131 384.069 438.382 381.992 435.66C360.906 408.006 340.989 381.888 341.393 341.922C345.703 230.47 505.441 230.521 509.712 341.917C510.116 381.856 490.231 407.965 469.179 435.603C467.092 438.343 464.986 441.108 462.877 443.917C462.727 444.117 462.569 444.313 462.406 444.502L446.343 463.106C438.925 471.677 430.99 473.516 425.639 473.551C425.616 473.551 425.593 473.551 425.568 473.551ZM405.627 430.408L421.423 448.735C422.905 450.448 424.451 451.498 425.568 451.549C426.668 451.498 428.206 450.447 429.702 448.718L445.513 430.407C447.576 427.66 449.638 424.954 451.681 422.272C471.201 396.645 488.06 374.512 487.716 342.094C484.711 259.546 366.38 259.618 363.395 342.094C363.051 374.532 379.937 396.677 399.489 422.32C401.521 424.987 403.572 427.678 405.627 430.408Z" fill="#BE46F7"/>
</g>
<defs>
<clipPath id="clip0_176_738">
<rect width="512" height="512" fill="white"/>
</clipPath>
</defs>
</svg>
