<svg width="512" height="512" viewBox="0 0 512 512" fill="none" xmlns="http://www.w3.org/2000/svg">
<g clip-path="url(#clip0_176_746)">
<path d="M392.351 381.916L295.965 192.75C294.055 189.001 290.205 186.645 286.009 186.645H225.992C221.796 186.645 217.946 189.001 216.036 192.75L119.65 381.916C118.035 385.095 118.025 388.854 119.64 392.034L150.665 453.271V500.824C150.665 507 155.663 511.998 161.839 511.998H350.162C356.338 511.998 361.336 507 361.336 500.824V453.271L392.361 392.034C393.976 388.854 393.966 385.095 392.351 381.916ZM256.001 347.945C263.681 347.945 269.938 354.192 269.938 361.872C269.938 369.563 263.681 375.81 256.001 375.81C248.321 375.81 242.063 369.563 242.063 361.872C242.063 354.192 248.321 347.945 256.001 347.945ZM338.987 489.649H173.014V461.773H338.987V489.649ZM343.305 439.424H168.696L142.142 387.005L232.839 208.994H244.826V327.363C230.269 332.077 219.714 345.761 219.714 361.872C219.714 381.885 235.988 398.159 256.001 398.159C276.013 398.159 292.288 381.885 292.288 361.872C292.288 345.761 281.733 332.077 267.175 327.363V208.994H279.162L369.86 387.005L343.305 439.424Z" fill="black"/>
<path d="M227.099 54.8778C138.332 67.5153 67.5151 138.332 54.8776 227.099C54.0853 232.676 49.4935 233.783 44.0281 233.783C43.4999 233.783 42.87 234.007 42.3316 233.925C36.2262 233.052 31.8884 230.055 32.7519 223.95C39.6599 175.421 61.7246 131.363 96.5386 96.5388C114.692 78.3851 135.355 63.7058 157.857 52.8258H26.4129C20.2364 52.8258 15.2383 47.8277 15.2383 41.6512C15.2383 35.4747 20.2364 30.4766 26.4129 30.4766H225.524C231.701 30.4766 235.133 35.4747 235.133 41.6512C235.133 42.0169 235.102 42.6061 235.071 42.9616C235.651 48.8842 233.041 54.0347 227.099 54.8778Z" fill="black"/>
<path d="M496.763 41.6502C496.763 47.8267 491.765 52.8248 485.588 52.8248H354.144C376.646 63.7048 397.309 78.3841 415.462 96.5378C450.276 131.362 472.341 175.42 479.249 223.949C480.113 230.054 476.455 233.54 470.35 234.414C469.812 234.485 468.073 233.732 467.544 233.732C462.079 233.732 457.916 232.676 457.123 227.099C444.486 138.332 373.669 67.5153 284.902 54.8778C278.96 54.0347 277.476 48.9969 278.055 43.0744C278.025 42.7188 277.96 42.0169 277.96 41.6512C277.96 35.4747 280.301 30.4766 286.477 30.4766H485.588C491.765 30.4755 496.763 35.4736 496.763 41.6502Z" fill="black"/>
<path d="M286.477 83.3016H225.524C219.353 83.3016 214.35 78.2984 214.35 72.127V11.1746C214.35 5.00318 219.353 0 225.524 0H286.477C292.648 0 297.651 5.00318 297.651 11.1746V72.127C297.651 78.2984 292.648 83.3016 286.477 83.3016ZM236.699 60.9524H275.302V22.3492H236.699V60.9524Z" fill="#BE46F7"/>
<path d="M500.826 297.649H439.874C433.702 297.649 428.699 292.646 428.699 286.475V225.522C428.699 219.351 433.702 214.348 439.874 214.348H500.826C506.998 214.348 512.001 219.351 512.001 225.522V286.475C512.001 292.646 506.998 297.649 500.826 297.649ZM451.048 275.3H489.652V236.697H451.048V275.3Z" fill="#BE46F7"/>
<path d="M72.127 297.649H11.1746C5.00318 297.649 0 292.646 0 286.475V225.522C0 219.351 5.00318 214.348 11.1746 214.348H72.127C78.2984 214.348 83.3016 219.351 83.3016 225.522V286.475C83.3016 292.646 78.2984 297.649 72.127 297.649ZM22.3492 275.3H60.9524V236.697H22.3492V275.3Z" fill="#BE46F7"/>
</g>
<defs>
<clipPath id="clip0_176_746">
<rect width="512" height="512" fill="white"/>
</clipPath>
</defs>
</svg>
