<svg width="512" height="512" viewBox="0 0 512 512" fill="none" xmlns="http://www.w3.org/2000/svg">
<path d="M433.877 12.798C425.635 4.545 414.669 0 402.999 0H174.332C171.415 0 168.617 1.159 166.554 3.222L68.554 101.222C66.492 103.285 65.332 106.083 65.332 109V468.333C65.333 492.411 84.921 512 108.999 512H402.999C414.669 512 425.635 507.455 433.867 499.212C442.12 490.97 446.665 480.004 446.665 468.333V43.667C446.666 31.996 442.12 21.03 433.877 12.798ZM178.889 22H179.666V92.667C179.666 104.613 169.946 114.333 157.999 114.333H87.333V113.557L178.889 22ZM424.666 468.333C424.666 474.122 422.413 479.56 418.312 483.655C414.225 487.747 408.787 490 402.999 490H108.999C97.052 490 87.333 480.28 87.333 468.333V136.333H157.999C182.077 136.333 201.666 116.744 201.666 92.667V22H402.999C408.787 22 414.225 24.253 418.321 28.354C422.412 32.44 424.665 37.877 424.665 43.666V468.333H424.666Z" fill="black"/>
<path d="M190.665 365C187.85 365 185.035 363.926 182.887 361.778L133.887 312.778C129.592 308.482 129.592 301.517 133.887 297.221L182.887 248.221C187.183 243.926 194.148 243.926 198.444 248.221C202.739 252.517 202.739 259.482 198.444 263.778L157.221 305L198.443 346.222C202.738 350.518 202.738 357.483 198.443 361.779C196.295 363.926 193.479 365 190.665 365Z" fill="#BE46F7"/>
<path d="M321.331 365C318.516 365 315.701 363.926 313.553 361.778C309.258 357.482 309.258 350.517 313.553 346.221L354.775 305L313.553 263.778C309.258 259.482 309.258 252.517 313.553 248.221C317.849 243.926 324.814 243.926 329.11 248.221L378.11 297.221C382.405 301.517 382.405 308.482 378.11 312.778L329.11 361.778C326.962 363.926 324.146 365 321.331 365Z" fill="#BE46F7"/>
<path d="M239.674 381.336C238.791 381.336 237.894 381.229 236.998 381.005C231.104 379.531 227.521 373.559 228.995 367.665L261.662 236.999C263.136 231.106 269.106 227.523 275.001 228.995C280.894 230.469 284.478 236.441 283.004 242.335L250.337 373.001C249.087 377.999 244.603 381.336 239.674 381.336Z" fill="black"/>
</svg>
