<svg
  xmlns="http://www.w3.org/2000/svg"
  xmlns:xlink="http://www.w3.org/1999/xlink"
  viewBox="0 0 500 500"
  width="500"
  height="500"
  preserveAspectRatio="xMidYMid meet"
  style="width: 100%; height: 100%; transform: translate3d(0px, 0px, 0px); content-visibility: visible;"
>
  <defs>
    <clipPath id="__lottie_element_164">
      <rect width="500" height="500" x="0" y="0"></rect>
    </clipPath>
    <g id="__lottie_element_170">
      <g
        transform="matrix(1,0,0,1,97.15800476074219,28.699996948242188)"
        opacity="1"
        style="display: block;"
      >
        <path
          fill="rgb(255,0,0)"
          fill-opacity="1"
          d=" M39.81,357.6 C39.81,357.6 39.81,85.81 39.81,85.81 C39.81,85.81 265.5,85.81 265.5,85.81 C265.5,85.81 265.5,357.6 265.5,357.6 C265.5,357.6 39.81,357.6 39.81,357.6z"
        ></path>
        <g
          opacity="1"
          transform="matrix(1,0,0,1,152.8419952392578,221.3000030517578)"
        >
          <path
            stroke-linecap="round"
            stroke-linejoin="round"
            fill-opacity="0"
            stroke="rgb(31,47,88)"
            stroke-opacity="1"
            stroke-width="16"
            d=" M-113.02799987792969,136.302001953125 C-113.02799987792969,136.302001953125 -113.02799987792969,-135.48899841308594 -113.02799987792969,-135.48899841308594 C-113.02799987792969,-135.48899841308594 112.65699768066406,-135.48899841308594 112.65699768066406,-135.48899841308594 C112.65699768066406,-135.48899841308594 112.65699768066406,136.302001953125 112.65699768066406,136.302001953125 C112.65699768066406,136.302001953125 -113.02799987792969,136.302001953125 -113.02799987792969,136.302001953125z"
          ></path>
        </g>
      </g>
    </g>
    <clipPath id="__lottie_element_174">
      <path d="M0,0 L500,0 L500,856 L0,856z"></path>
    </clipPath>
    <mask id="__lottie_element_170_1" mask-type="alpha">
      <use xlink:href="#__lottie_element_170"></use>
    </mask>
  </defs>
  <g clip-path="url(#__lottie_element_164)">
    <g mask="url(#__lottie_element_170_1)" style="display: block;">
      <g
        clip-path="url(#__lottie_element_174)"
        transform="matrix(1,0,0,1,0,-178)"
        opacity="1"
      >
        <g
          transform="matrix(1,0,0,1,170.97999572753906,326.4120178222656)"
          opacity="1"
          style="display: block;"
        >
          <g
            opacity="1"
            transform="matrix(1,0,0,1,79.01899719238281,56.45100021362305)"
          >
            <path
              stroke-linecap="round"
              stroke-linejoin="round"
              fill-opacity="0"
              stroke="rgb(190,70,247)"
              stroke-opacity="1"
              stroke-width="16"
              d=" M67.70600128173828,45.137001037597656 C67.70600128173828,45.137001037597656 -67.70600128173828,45.137001037597656 -67.70600128173828,45.137001037597656 C-67.70600128173828,45.137001037597656 -67.70600128173828,-45.137001037597656 -67.70600128173828,-45.137001037597656 C-67.70600128173828,-45.137001037597656 67.70600128173828,-45.137001037597656 67.70600128173828,-45.137001037597656 C67.70600128173828,-45.137001037597656 67.70600128173828,45.137001037597656 67.70600128173828,45.137001037597656z"
            ></path>
          </g>
          <g
            opacity="1"
            transform="matrix(1,0,0,1,79.0199966430664,56.45100021362305)"
          >
            <path
              stroke-linecap="round"
              stroke-linejoin="round"
              fill-opacity="0"
              stroke="rgb(190,70,247)"
              stroke-opacity="1"
              stroke-width="16"
              d=" M-67.70600128173828,-45.137001037597656 C-67.70600128173828,-45.137001037597656 67.70600128173828,45.137001037597656 67.70600128173828,45.137001037597656"
            ></path>
          </g>
          <g
            opacity="1"
            transform="matrix(1,0,0,1,79.0199966430664,56.45100021362305)"
          >
            <path
              stroke-linecap="round"
              stroke-linejoin="round"
              fill-opacity="0"
              stroke="rgb(190,70,247)"
              stroke-opacity="1"
              stroke-width="16"
              d=" M67.70600128173828,-45.137001037597656 C67.70600128173828,-45.137001037597656 -67.70600128173828,45.137001037597656 -67.70600128173828,45.137001037597656"
            ></path>
          </g>
        </g>
        <g
          transform="matrix(1,0,0,1,170.98199462890625,461.8240051269531)"
          opacity="1"
          style="display: block;"
        >
          <g
            opacity="1"
            transform="matrix(1,0,0,1,33.88199996948242,33.88199996948242)"
          >
            <path
              stroke-linecap="round"
              stroke-linejoin="round"
              fill-opacity="0"
              stroke="rgb(31,47,88)"
              stroke-opacity="1"
              stroke-width="16"
              d=" M22.56800079345703,22.569000244140625 C22.56800079345703,22.569000244140625 -22.56800079345703,22.569000244140625 -22.56800079345703,22.569000244140625 C-22.56800079345703,22.569000244140625 -22.56800079345703,-22.569000244140625 -22.56800079345703,-22.569000244140625 C-22.56800079345703,-22.569000244140625 22.56800079345703,-22.569000244140625 22.56800079345703,-22.569000244140625 C22.56800079345703,-22.569000244140625 22.56800079345703,22.569000244140625 22.56800079345703,22.569000244140625z"
            ></path>
          </g>
        </g>
        <g
          transform="matrix(1,0,0,1,261.2539978027344,461.8240051269531)"
          opacity="1"
          style="display: block;"
        >
          <g
            opacity="1"
            transform="matrix(1,0,0,1,33.88199996948242,33.88199996948242)"
          >
            <path
              stroke-linecap="round"
              stroke-linejoin="round"
              fill-opacity="0"
              stroke="rgb(31,47,88)"
              stroke-opacity="1"
              stroke-width="16"
              d=" M22.56800079345703,22.569000244140625 C22.56800079345703,22.569000244140625 -22.56800079345703,22.569000244140625 -22.56800079345703,22.569000244140625 C-22.56800079345703,22.569000244140625 -22.56800079345703,-22.569000244140625 -22.56800079345703,-22.569000244140625 C-22.56800079345703,-22.569000244140625 22.56800079345703,-22.569000244140625 22.56800079345703,-22.569000244140625 C22.56800079345703,-22.569000244140625 22.56800079345703,22.569000244140625 22.56800079345703,22.569000244140625z"
            ></path>
          </g>
        </g>
        <g style="display: none;">
          <g>
            <path
              stroke-linecap="round"
              stroke-linejoin="round"
              fill-opacity="0"
            ></path>
          </g>
        </g>
        <g style="display: none;">
          <g>
            <path
              stroke-linecap="round"
              stroke-linejoin="round"
              fill-opacity="0"
            ></path>
          </g>
        </g>
        <g style="display: none;">
          <g>
            <path
              stroke-linecap="round"
              stroke-linejoin="round"
              fill-opacity="0"
            ></path>
          </g>
          <g>
            <path
              stroke-linecap="round"
              stroke-linejoin="round"
              fill-opacity="0"
            ></path>
          </g>
          <g>
            <path
              stroke-linecap="round"
              stroke-linejoin="round"
              fill-opacity="0"
            ></path>
          </g>
        </g>
        <g style="display: none;">
          <g>
            <path
              stroke-linecap="round"
              stroke-linejoin="round"
              fill-opacity="0"
            ></path>
          </g>
        </g>
        <g style="display: none;">
          <g>
            <path
              stroke-linecap="round"
              stroke-linejoin="round"
              fill-opacity="0"
            ></path>
          </g>
        </g>
      </g>
    </g>
    <g
      transform="matrix(1,0,0,1,97.15800476074219,28.699996948242188)"
      opacity="1"
      style="display: block;"
    >
      <g opacity="1" transform="matrix(1,0,0,1,0,0)">
        <path
          stroke-linecap="round"
          stroke-linejoin="round"
          fill-opacity="0"
          stroke="rgb(190,70,247)"
          stroke-opacity="1"
          stroke-width="16"
          d=" M40,85.13700103759766 C40,85.13700103759766 265.68499755859375,85.13700103759766 265.68499755859375,85.13700103759766"
        ></path>
      </g>
      <g opacity="1" transform="matrix(1,0,0,1,0,0)">
        <path
          stroke-linecap="round"
          stroke-linejoin="round"
          fill-opacity="0"
          stroke="rgb(190,70,247)"
          stroke-opacity="1"
          stroke-width="16"
          d=" M40,357.4630126953125 C40,357.4630126953125 265.68499755859375,357.4630126953125 265.68499755859375,357.4630126953125"
        ></path>
      </g>
      <g
        opacity="1"
        transform="matrix(1,0,0,1,152.8419952392578,221.3000030517578)"
      >
        <path
          stroke-linecap="round"
          stroke-linejoin="round"
          fill-opacity="0"
          stroke="rgb(31,47,88)"
          stroke-opacity="1"
          stroke-width="16"
          d=" M82.34500122070312,181.3000030517578 C82.34500122070312,181.3000030517578 -82.34400177001953,181.3000030517578 -82.34400177001953,181.3000030517578 C-99.18699645996094,181.3000030517578 -112.84200286865234,167.64599609375 -112.84200286865234,150.802001953125 C-112.84200286865234,150.802001953125 -112.84200286865234,-150.802001953125 -112.84200286865234,-150.802001953125 C-112.84200286865234,-167.64599609375 -99.18699645996094,-181.3000030517578 -82.34400177001953,-181.3000030517578 C-82.34400177001953,-181.3000030517578 82.34500122070312,-181.3000030517578 82.34500122070312,-181.3000030517578 C99.18900299072266,-181.3000030517578 112.84200286865234,-167.64599609375 112.84200286865234,-150.802001953125 C112.84200286865234,-150.802001953125 112.84200286865234,150.802001953125 112.84200286865234,150.802001953125 C112.84200286865234,167.64599609375 99.18900299072266,181.3000030517578 82.34500122070312,181.3000030517578z"
        ></path>
      </g>
    </g>
  </g>
</svg>
