<svg width="512" height="512" viewBox="0 0 512 512" fill="none" xmlns="http://www.w3.org/2000/svg">
<g clip-path="url(#clip0_176_707)">
<path d="M195.004 62.0117H51.664C23.177 62.0117 0 85.1887 0 113.676V215.336C0 243.824 23.177 267 51.664 267H107.451L85.566 288.886C81.27 293.182 81.27 300.146 85.566 304.442C87.714 306.59 90.529 307.664 93.344 307.664C96.159 307.664 98.975 306.59 101.122 304.442L141.777 263.786C146.038 259.688 146.037 252.325 141.785 248.222L101.122 207.558C96.825 203.263 89.86 203.262 85.565 207.558C81.269 211.854 81.269 218.819 85.565 223.115L107.452 245H51.664C35.308 245 22 231.693 22 215.336V113.676C22 97.3187 35.308 84.0117 51.664 84.0117H195.004C201.079 84.0117 206.004 79.0867 206.004 73.0117C206.004 66.9367 201.079 62.0117 195.004 62.0117Z" fill="#BE46F7"/>
<path d="M316.996 512H195.004C188.929 512 184.004 507.075 184.004 501V379.008C184.004 372.933 188.929 368.008 195.004 368.008H316.996C323.071 368.008 327.996 372.933 327.996 379.008V501C327.996 507.075 323.071 512 316.996 512ZM206.004 490H305.996V390.008H206.004V490Z" fill="black"/>
<path d="M512 296.66V398.32C512 426.79 488.86 449.95 460.41 449.99L404.23 450.68L426.43 472.89C430.73 477.19 430.73 484.15 426.43 488.45C424.29 490.59 421.47 491.67 418.66 491.67C415.84 491.67 413.03 490.59 410.88 488.45L370.21 447.78C365.92 443.49 365.92 436.52 370.21 432.23L410.88 391.56C415.17 387.27 422.14 387.27 426.43 391.56C430.73 395.86 430.73 402.82 426.43 407.12L404.88 428.67L460.2 427.99H460.34C476.69 427.99 490 414.68 490 398.32V296.66C490 280.31 476.69 267 460.34 267H317C310.92 267 306 262.08 306 256C306 249.92 310.92 245 317 245H460.34C488.82 245 512 268.18 512 296.66Z" fill="#BE46F7"/>
<path d="M316.996 327.996H195.004C188.929 327.996 184.004 323.071 184.004 316.996V195.004C184.004 188.929 188.929 184.004 195.004 184.004H316.996C323.071 184.004 327.996 188.929 327.996 195.004V316.996C327.996 323.071 323.071 327.996 316.996 327.996ZM206.004 305.996H305.996V206.004H206.004V305.996Z" fill="black"/>
<path d="M316.996 143.992H195.004C188.929 143.992 184.004 139.067 184.004 132.992V11C184.004 4.925 188.929 0 195.004 0H316.996C323.071 0 327.996 4.925 327.996 11V132.992C327.996 139.067 323.071 143.992 316.996 143.992ZM206.004 121.992H305.996V22H206.004V121.992Z" fill="black"/>
</g>
<defs>
<clipPath id="clip0_176_707">
<rect width="512" height="512" fill="white"/>
</clipPath>
</defs>
</svg>
