<svg
  xmlns="http://www.w3.org/2000/svg"
  xmlns:xlink="http://www.w3.org/1999/xlink"
  viewBox="0 0 500 500"
  width="500"
  height="500"
  preserveAspectRatio="xMidYMid meet"
  style="width: 100%; height: 100%; transform: translate3d(0px, 0px, 0px); content-visibility: visible;"
>
  <defs>
    <clipPath id="__lottie_element_604">
      <rect width="500" height="500" x="0" y="0"></rect>
    </clipPath>
    <g id="__lottie_element_607">
      <g
        transform="matrix(1,0,0,1,52.14500427246094,118.9739990234375)"
        opacity="1"
        style="display: block;"
      >
        <path
          fill="rgb(255,0,0)"
          fill-opacity="1"
          d=" M356.51,221.29 C356.51,221.29 356.71,243.87 356.71,243.87 C356.71,256.33 346.61,266.44 334.14,266.44 C334.14,266.44 62.57,266.44 62.57,266.44 C50.1,266.44 40,256.33 40,243.87 C40,243.87 39.8,221.29 39.8,221.29 C39.8,221.29 356.51,221.29 356.51,221.29z"
        ></path>
        <g
          opacity="1"
          transform="matrix(1,0,0,1,198.35499572753906,153.21800231933594)"
        >
          <path
            stroke-linecap="round"
            stroke-linejoin="round"
            fill-opacity="0"
            stroke="rgb(31,47,88)"
            stroke-opacity="1"
            stroke-width="16"
            d=" M158.1540069580078,68.06800079345703 C158.1540069580078,68.06800079345703 158.35499572753906,90.6500015258789 158.35499572753906,90.6500015258789 C158.35499572753906,103.11499786376953 148.25100708007812,113.21900177001953 135.78700256347656,113.21900177001953 C135.78700256347656,113.21900177001953 -135.78700256347656,113.21900177001953 -135.78700256347656,113.21900177001953 C-148.25100708007812,113.21900177001953 -158.35499572753906,103.11499786376953 -158.35499572753906,90.6500015258789 C-158.35499572753906,90.6500015258789 -158.55599975585938,68.06800079345703 -158.55599975585938,68.06800079345703 C-158.55599975585938,68.06800079345703 158.1540069580078,68.06800079345703 158.1540069580078,68.06800079345703z"
          ></path>
        </g>
      </g>
    </g>
    <filter
      id="__lottie_element_613"
      filterUnits="objectBoundingBox"
      x="0%"
      y="0%"
      width="100%"
      height="100%"
    >
      <feComponentTransfer in="SourceGraphic">
        <feFuncA type="table" tableValues="1.0 0.0"></feFuncA>
      </feComponentTransfer>
    </filter>
    <mask id="__lottie_element_607_2" mask-type="alpha">
      <g filter="url(#__lottie_element_613)">
        <rect
          width="500"
          height="500"
          x="0"
          y="0"
          fill="#ffffff"
          opacity="0"
        ></rect>
        <use xlink:href="#__lottie_element_607"></use>
      </g>
    </mask>
    <g id="__lottie_element_617">
      <g
        transform="matrix(1,0,0,1,164.98699951171875,73.83599853515625)"
        opacity="1"
        style="display: block;"
      >
        <path
          fill="rgb(255,0,0)"
          fill-opacity="1"
          d=" M62.57,175.41 C62.57,175.41 107.71,175.41 107.71,175.41 C107.71,175.41 130.27,130.27 130.27,130.27 C130.27,130.27 85.14,40 85.14,40 C85.14,40 40,130.27 40,130.27 C40,130.27 62.57,175.41 62.57,175.41z"
        ></path>
        <g
          opacity="1"
          transform="matrix(1,0,0,1,85.13700103759766,107.70500183105469)"
        >
          <path
            stroke-linecap="round"
            stroke-linejoin="round"
            fill-opacity="0"
            stroke="rgb(31,47,88)"
            stroke-opacity="1"
            stroke-width="16"
            d=" M-22.56800079345703,67.70600128173828 C-22.56800079345703,67.70600128173828 22.56800079345703,67.70600128173828 22.56800079345703,67.70600128173828 C22.56800079345703,67.70600128173828 45.137001037597656,22.569000244140625 45.137001037597656,22.569000244140625 C45.137001037597656,22.569000244140625 -0.0010000000474974513,-67.70600128173828 -0.0010000000474974513,-67.70600128173828 C-0.0010000000474974513,-67.70600128173828 -45.137001037597656,22.569000244140625 -45.137001037597656,22.569000244140625 C-45.137001037597656,22.569000244140625 -22.56800079345703,67.70600128173828 -22.56800079345703,67.70600128173828z"
          ></path>
        </g>
      </g>
    </g>
    <filter
      id="__lottie_element_623"
      filterUnits="objectBoundingBox"
      x="0%"
      y="0%"
      width="100%"
      height="100%"
    >
      <feComponentTransfer in="SourceGraphic">
        <feFuncA type="table" tableValues="1.0 0.0"></feFuncA>
      </feComponentTransfer>
    </filter>
    <mask id="__lottie_element_617_2" mask-type="alpha">
      <g filter="url(#__lottie_element_623)">
        <rect
          width="500"
          height="500"
          x="0"
          y="0"
          fill="#ffffff"
          opacity="0"
        ></rect>
        <use xlink:href="#__lottie_element_617"></use>
      </g>
    </mask>
  </defs>
  <g clip-path="url(#__lottie_element_604)">
    <g mask="url(#__lottie_element_617_2)" style="display: block;">
      <g
        transform="matrix(1,0,0,1,52.14500427246094,118.9739990234375)"
        opacity="1"
      >
        <g opacity="1" transform="matrix(1,0,0,1,0,0)">
          <path
            stroke-linecap="round"
            stroke-linejoin="round"
            fill-opacity="0"
            stroke="rgb(190,70,247)"
            stroke-opacity="1"
            stroke-width="16"
            d=" M40,221.3000030517578 C40,221.3000030517578 356.71099853515625,221.3000030517578 356.71099853515625,221.3000030517578"
          ></path>
        </g>
        <g opacity="1" transform="matrix(1,0,0,1,0,0)">
          <path
            stroke-linecap="round"
            stroke-linejoin="round"
            fill-opacity="0"
            stroke="rgb(31,47,88)"
            stroke-opacity="1"
            stroke-width="16"
            d=" M220.5469970703125,266.43701171875 C220.5469970703125,266.43701171875 220.5469970703125,312.32598876953125 220.5469970703125,312.32598876953125"
          ></path>
        </g>
        <g opacity="1" transform="matrix(1,0,0,1,0,0)">
          <path
            stroke-linecap="round"
            stroke-linejoin="round"
            fill-opacity="0"
            stroke="rgb(31,47,88)"
            stroke-opacity="1"
            stroke-width="16"
            d=" M175.41000366210938,312.32598876953125 C175.41000366210938,312.32598876953125 175.41000366210938,266.43701171875 175.41000366210938,266.43701171875"
          ></path>
        </g>
        <g opacity="1" transform="matrix(1,0,0,1,0,0)">
          <path
            stroke-linecap="round"
            stroke-linejoin="round"
            fill-opacity="0"
            stroke="rgb(31,47,88)"
            stroke-opacity="1"
            stroke-width="16"
            d=" M130.2729949951172,312.32598876953125 C130.2729949951172,312.32598876953125 265.6839904785156,312.32598876953125 265.6839904785156,312.32598876953125"
          ></path>
        </g>
        <g
          opacity="1"
          transform="matrix(1,0,0,1,198.35499572753906,153.21800231933594)"
        >
          <path
            stroke-linecap="round"
            stroke-linejoin="round"
            fill-opacity="0"
            stroke="rgb(31,47,88)"
            stroke-opacity="1"
            stroke-width="16"
            d=" M135.78700256347656,-113.21800231933594 C148.25100708007812,-113.21800231933594 158.35499572753906,-103.11399841308594 158.35499572753906,-90.6500015258789 C158.35499572753906,-90.6500015258789 158.35499572753906,90.6500015258789 158.35499572753906,90.6500015258789 C158.35499572753906,103.11499786376953 148.25100708007812,113.21900177001953 135.78700256347656,113.21900177001953 C135.78700256347656,113.21900177001953 -135.78700256347656,113.21900177001953 -135.78700256347656,113.21900177001953 C-148.25100708007812,113.21900177001953 -158.35499572753906,103.11499786376953 -158.35499572753906,90.6500015258789 C-158.35499572753906,90.6500015258789 -158.35499572753906,-90.6500015258789 -158.35499572753906,-90.6500015258789 C-158.35499572753906,-103.11399841308594 -148.25100708007812,-113.21800231933594 -135.78700256347656,-113.21800231933594 C-135.78700256347656,-113.21800231933594 135.78700256347656,-113.21800231933594 135.78700256347656,-113.21800231933594z"
          ></path>
        </g>
      </g>
    </g>
    <g
      transform="matrix(1,0,0,1,29.576004028320312,28.699996948242188)"
      opacity="1"
      style="display: block;"
    >
      <g
        opacity="1"
        transform="matrix(1,0,0,1,220.5469970703125,62.56800079345703)"
      >
        <path
          stroke-linecap="round"
          stroke-linejoin="round"
          fill-opacity="0"
          stroke="rgb(190,70,247)"
          stroke-opacity="1"
          stroke-width="16"
          d=" M22.56800079345703,22.56800079345703 C22.56800079345703,22.56800079345703 -22.56800079345703,22.56800079345703 -22.56800079345703,22.56800079345703 C-22.56800079345703,22.56800079345703 -22.56800079345703,-22.56800079345703 -22.56800079345703,-22.56800079345703 C-22.56800079345703,-22.56800079345703 22.56800079345703,-22.56800079345703 22.56800079345703,-22.56800079345703 C22.56800079345703,-22.56800079345703 22.56800079345703,22.56800079345703 22.56800079345703,22.56800079345703z"
        ></path>
      </g>
      <g opacity="1" transform="matrix(1,0,0,1,0,0)">
        <path
          stroke-linecap="round"
          stroke-linejoin="round"
          fill-opacity="0"
          stroke="rgb(190,70,247)"
          stroke-opacity="1"
          stroke-width="16"
          d=" M85.13700103759766,62.56800079345703 C85.13700103759766,62.56800079345703 197.97900390625,62.56800079345703 197.97900390625,62.56800079345703"
        ></path>
      </g>
      <g opacity="1" transform="matrix(1,0,0,1,0,0)">
        <path
          stroke-linecap="round"
          stroke-linejoin="round"
          fill-opacity="0"
          stroke="rgb(190,70,247)"
          stroke-opacity="1"
          stroke-width="16"
          d=" M243.11599731445312,62.56800079345703 C243.11599731445312,62.56800079345703 356.71099853515625,62.56800079345703 356.71099853515625,62.56800079345703"
        ></path>
      </g>
      <g
        opacity="1"
        transform="matrix(1,0,0,1,379.27899169921875,62.569000244140625)"
      >
        <path
          stroke-linecap="round"
          stroke-linejoin="round"
          fill-opacity="0"
          stroke="rgb(190,70,247)"
          stroke-opacity="1"
          stroke-width="16"
          d=" M22.569000244140625,-0.0010000000474974513 C22.569000244140625,12.463000297546387 12.46399974822998,22.56800079345703 0,22.56800079345703 C-12.46500015258789,22.56800079345703 -22.569000244140625,12.463000297546387 -22.569000244140625,-0.0010000000474974513 C-22.569000244140625,-12.46500015258789 -12.46500015258789,-22.56800079345703 0,-22.56800079345703 C12.46399974822998,-22.56800079345703 22.569000244140625,-12.46500015258789 22.569000244140625,-0.0010000000474974513z"
        ></path>
      </g>
      <g
        opacity="1"
        transform="matrix(1,0,0,1,62.56800079345703,62.569000244140625)"
      >
        <path
          stroke-linecap="round"
          stroke-linejoin="round"
          fill-opacity="0"
          stroke="rgb(190,70,247)"
          stroke-opacity="1"
          stroke-width="16"
          d=" M22.56800079345703,-0.0010000000474974513 C22.56800079345703,12.463000297546387 12.46500015258789,22.56800079345703 0.0010000000474974513,22.56800079345703 C-12.46399974822998,22.56800079345703 -22.56800079345703,12.463000297546387 -22.56800079345703,-0.0010000000474974513 C-22.56800079345703,-12.46500015258789 -12.46399974822998,-22.56800079345703 0.0010000000474974513,-22.56800079345703 C12.46500015258789,-22.56800079345703 22.56800079345703,-12.46500015258789 22.56800079345703,-0.0010000000474974513z"
        ></path>
      </g>
    </g>
    <g mask="url(#__lottie_element_607_2)" style="display: block;">
      <g
        transform="matrix(1,0,0,1,164.98699951171875,73.83599853515625)"
        opacity="1"
      >
        <g
          opacity="1"
          transform="matrix(1,0,0,1,85.13600158691406,220.9239959716797)"
        >
          <path
            stroke-linecap="round"
            stroke-linejoin="round"
            fill-opacity="0"
            stroke="rgb(31,47,88)"
            stroke-opacity="1"
            stroke-width="16"
            d=" M-22.649999618530273,75.51300048828125 C-22.649999618530273,75.51300048828125 -22.56800079345703,-45.51300048828125 -22.56800079345703,-45.51300048828125 C-22.56800079345703,-45.51300048828125 22.56800079345703,-45.51300048828125 22.56800079345703,-45.51300048828125 C22.56800079345703,-45.51300048828125 22.48699951171875,75.51300048828125 22.48699951171875,75.51300048828125"
          ></path>
        </g>
        <g
          opacity="1"
          transform="matrix(1,0,0,1,85.13700103759766,107.70500183105469)"
        >
          <path
            stroke-linecap="round"
            stroke-linejoin="round"
            fill-opacity="0"
            stroke="rgb(31,47,88)"
            stroke-opacity="1"
            stroke-width="16"
            d=" M-22.56800079345703,67.70600128173828 C-22.56800079345703,67.70600128173828 22.56800079345703,67.70600128173828 22.56800079345703,67.70600128173828 C22.56800079345703,67.70600128173828 45.137001037597656,22.569000244140625 45.137001037597656,22.569000244140625 C45.137001037597656,22.569000244140625 -0.0010000000474974513,-67.70600128173828 -0.0010000000474974513,-67.70600128173828 C-0.0010000000474974513,-67.70600128173828 -45.137001037597656,22.569000244140625 -45.137001037597656,22.569000244140625 C-45.137001037597656,22.569000244140625 -22.56800079345703,67.70600128173828 -22.56800079345703,67.70600128173828z"
          ></path>
        </g>
        <g opacity="1" transform="matrix(1,0,0,1,0,0)">
          <path
            stroke-linecap="round"
            stroke-linejoin="round"
            fill-opacity="0"
            stroke="rgb(31,47,88)"
            stroke-opacity="1"
            stroke-width="16"
            d=" M40,175.41099548339844 C40,175.41099548339844 130.2740020751953,175.41099548339844 130.2740020751953,175.41099548339844"
          ></path>
        </g>
        <g opacity="1" transform="matrix(1,0,0,1,0,0)">
          <path
            stroke-linecap="round"
            stroke-linejoin="round"
            fill-opacity="0"
            stroke="rgb(31,47,88)"
            stroke-opacity="1"
            stroke-width="16"
            d=" M85.13700103759766,130.2740020751953 C85.13700103759766,130.2740020751953 85.13700103759766,175.41099548339844 85.13700103759766,175.41099548339844"
          ></path>
        </g>
      </g>
    </g>
  </g>
</svg>
