<svg
  xmlns="http://www.w3.org/2000/svg"
  xmlns:xlink="http://www.w3.org/1999/xlink"
  viewBox="0 0 500 500"
  width="500"
  height="500"
  preserveAspectRatio="xMidYMid meet"
  style="width: 100%; height: 100%; transform: translate3d(0px, 0px, 0px); content-visibility: visible;"
>
  <defs>
    <clipPath id="__lottie_element_576">
      <rect width="500" height="500" x="0" y="0"></rect>
    </clipPath>
  </defs>
  <g clip-path="url(#__lottie_element_576)">
    <g
      transform="matrix(1,0,0,1,220.4010009765625,241.69900512695312)"
      opacity="1"
      style="display: block;"
    >
      <g
        opacity="1"
        transform="matrix(1,0,0,1,30.22800064086914,52.893001556396484)"
      >
        <path
          stroke-linecap="round"
          stroke-linejoin="round"
          fill-opacity="0"
          stroke="rgb(190,70,247)"
          stroke-opacity="1"
          stroke-width="16"
          d=" M22.22800064086914,-44.893001556396484 C22.22800064086914,-44.893001556396484 -22.22800064086914,44.893001556396484 -22.22800064086914,44.893001556396484"
        ></path>
      </g>
    </g>
    <g
      transform="matrix(1,0,0,1,96.94499206542969,209.698974609375)"
      opacity="1"
      style="display: block;"
    >
      <g
        opacity="1"
        transform="matrix(1,0,0,1,62.45500183105469,84.91100311279297)"
      >
        <path
          stroke-linecap="round"
          stroke-linejoin="round"
          fill-opacity="0"
          stroke="rgb(31,47,88)"
          stroke-opacity="1"
          stroke-width="16"
          d=" M22.45599937438965,-44.9109992980957 C22.45599937438965,-44.9109992980957 -22.45599937438965,0 -22.45599937438965,0 C-22.45599937438965,0 22.45599937438965,44.9109992980957 22.45599937438965,44.9109992980957"
        ></path>
      </g>
    </g>
    <g
      transform="matrix(1,0,0,1,278.14398193359375,209.69998168945312)"
      opacity="1"
      style="display: block;"
    >
      <g
        opacity="1"
        transform="matrix(1,0,0,1,62.45600128173828,84.91100311279297)"
      >
        <path
          stroke-linecap="round"
          stroke-linejoin="round"
          fill-opacity="0"
          stroke="rgb(31,47,88)"
          stroke-opacity="1"
          stroke-width="16"
          d=" M-22.454999923706055,44.9109992980957 C-22.454999923706055,44.9109992980957 22.454999923706055,0 22.454999923706055,0 C22.454999923706055,0 -22.454999923706055,-44.9109992980957 -22.454999923706055,-44.9109992980957"
        ></path>
      </g>
    </g>
    <g
      transform="matrix(1,0,0,1,28.699996948242188,40.735992431640625)"
      opacity="1"
      style="display: block;"
    >
      <g opacity="1" transform="matrix(1,0,0,1,0,0)">
        <path
          stroke-linecap="round"
          stroke-linejoin="round"
          fill-opacity="0"
          stroke="rgb(190,70,247)"
          stroke-opacity="1"
          stroke-width="16"
          d=" M40,130.2740020751953 C40,130.2740020751953 402.6000061035156,130.2740020751953 402.6000061035156,130.2740020751953"
        ></path>
      </g>
      <g
        opacity="1"
        transform="matrix(1,0,0,1,221.3000030517578,209.26400756835938)"
      >
        <path
          stroke-linecap="round"
          stroke-linejoin="round"
          fill-opacity="0"
          stroke="rgb(31,47,88)"
          stroke-opacity="1"
          stroke-width="16"
          d=" M158.73199462890625,169.26300048828125 C171.1959991455078,169.26300048828125 181.3000030517578,159.15899658203125 181.3000030517578,146.69500732421875 C181.3000030517578,146.69500732421875 181.3000030517578,-146.69500732421875 181.3000030517578,-146.69500732421875 C181.3000030517578,-159.16000366210938 171.1959991455078,-169.26400756835938 158.73199462890625,-169.26400756835938 C158.73199462890625,-169.26400756835938 -158.7310028076172,-169.26400756835938 -158.7310028076172,-169.26400756835938 C-171.19500732421875,-169.26400756835938 -181.3000030517578,-159.16000366210938 -181.3000030517578,-146.69500732421875 C-181.3000030517578,-146.69500732421875 -181.3000030517578,146.69500732421875 -181.3000030517578,146.69500732421875 C-181.3000030517578,159.15899658203125 -171.19500732421875,169.26300048828125 -158.7310028076172,169.26300048828125 C-158.7310028076172,169.26300048828125 158.73199462890625,169.26300048828125 158.73199462890625,169.26300048828125z"
        ></path>
      </g>
    </g>
    <g
      transform="matrix(1,0,0,1,241.24798583984375,117.87300109863281)"
      opacity="1"
      style="display: block;"
    >
      <g opacity="1" transform="matrix(1,0,0,1,0,0)">
        <path
          stroke-linecap="round"
          stroke-linejoin="round"
          fill-opacity="0"
          stroke="rgb(31,47,88)"
          stroke-opacity="1"
          stroke-width="16"
          d=" M8,8 C8,8 144.9149932861328,8 144.9149932861328,8"
        ></path>
      </g>
    </g>
    <g
      transform="matrix(1,0,0,1,105.83699798583984,118.6259994506836)"
      opacity="1"
      style="display: block;"
    >
      <g opacity="1" transform="matrix(1,0,0,1,0,0)">
        <path
          stroke-linecap="round"
          stroke-linejoin="round"
          fill-opacity="0"
          stroke="rgb(31,47,88)"
          stroke-opacity="1"
          stroke-width="16"
          d=" M8,8 C8,8 8,8 8,8z"
        ></path>
      </g>
    </g>
    <g
      transform="matrix(1,0,0,1,150.9739990234375,118.6259994506836)"
      opacity="1"
      style="display: block;"
    >
      <g opacity="1" transform="matrix(1,0,0,1,0,0)">
        <path
          stroke-linecap="round"
          stroke-linejoin="round"
          fill-opacity="0"
          stroke="rgb(31,47,88)"
          stroke-opacity="1"
          stroke-width="16"
          d=" M8,8 C8,8 8,8 8,8z"
        ></path>
      </g>
    </g>
    <g
      transform="matrix(1,0,0,1,196.11099243164062,118.6259994506836)"
      opacity="1"
      style="display: block;"
    >
      <g opacity="1" transform="matrix(1,0,0,1,0,0)">
        <path
          stroke-linecap="round"
          stroke-linejoin="round"
          fill-opacity="0"
          stroke="rgb(31,47,88)"
          stroke-opacity="1"
          stroke-width="16"
          d=" M8,8 C8,8 8,8 8,8z"
        ></path>
      </g>
    </g>
  </g>
</svg>
