<svg width="512" height="512" viewBox="0 0 512 512" fill="none" xmlns="http://www.w3.org/2000/svg">
<g clip-path="url(#clip0_176_718)">
<path d="M421.266 511.999H370.436C365.389 511.999 360.989 508.564 359.765 503.667L354.442 482.376C349.5 480.049 344.757 477.306 340.262 474.172L319.142 480.213C314.29 481.602 309.114 479.509 306.59 475.137L281.175 431.117C278.651 426.746 279.427 421.217 283.055 417.709L298.844 402.443C298.571 399.564 298.44 396.885 298.44 394.256C298.44 391.627 298.571 388.947 298.844 386.068L283.055 370.801C279.427 367.293 278.652 361.764 281.175 357.393L306.59 313.373C309.113 309.002 314.283 306.908 319.142 308.297L340.263 314.339C344.759 311.205 349.5 308.462 354.442 306.135L359.765 284.844C360.989 279.947 365.389 276.512 370.436 276.512H421.266C426.313 276.512 430.713 279.948 431.937 284.844L437.26 306.135C442.201 308.461 446.944 311.205 451.44 314.339L472.56 308.297C477.412 306.908 482.588 309.001 485.112 313.373L510.527 357.393C513.05 361.764 512.276 367.292 508.647 370.801L492.858 386.068C493.131 388.947 493.262 391.626 493.262 394.256C493.262 396.886 493.132 399.564 492.858 402.443L508.647 417.709C512.276 421.217 513.051 426.746 510.527 431.117L485.112 475.137C482.589 479.509 477.415 481.601 472.56 480.213L451.44 474.172C446.944 477.306 442.202 480.049 437.26 482.376L431.937 503.667C430.713 508.564 426.313 511.999 421.266 511.999ZM379.024 489.999H412.676L417.229 471.789C418.085 468.363 420.535 465.556 423.814 464.244C430.489 461.573 436.757 457.947 442.443 453.466C445.22 451.278 448.881 450.557 452.277 451.53L470.353 456.7L487.18 427.556L473.64 414.465C471.104 412.013 469.898 408.493 470.397 405.001C470.986 400.877 471.261 397.462 471.261 394.257C471.261 391.051 470.987 387.637 470.397 383.513C469.897 380.02 471.104 376.501 473.64 374.049L487.18 360.957L470.353 331.813L452.277 336.983C448.877 337.954 445.219 337.234 442.443 335.046C436.757 330.565 430.49 326.939 423.816 324.269C420.537 322.957 418.086 320.15 417.23 316.724L412.677 298.514H379.025L374.472 316.724C373.615 320.151 371.165 322.957 367.886 324.269C361.212 326.938 354.945 330.564 349.26 335.046C346.483 337.234 342.823 337.956 339.425 336.983L321.349 331.813L304.522 360.957L318.062 374.049C320.598 376.501 321.804 380.021 321.305 383.513C320.716 387.637 320.441 391.051 320.441 394.257C320.441 397.462 320.716 400.876 321.305 405.001C321.805 408.493 320.598 412.013 318.062 414.465L304.522 427.556L321.349 456.7L339.425 451.53C342.822 450.557 346.482 451.278 349.259 453.466C354.945 457.947 361.212 461.573 367.887 464.244C371.166 465.556 373.616 468.363 374.472 471.789L379.024 489.999Z" fill="#BE46F7"/>
<path d="M444.293 176.044C439.996 171.748 433.032 171.748 428.736 176.044L406.85 197.93V71.996C406.851 32.298 374.554 0 334.855 0H193.988C154.289 0 121.992 32.297 121.992 71.996V134.008C121.992 140.083 126.917 145.008 132.992 145.008C139.067 145.008 143.992 140.083 143.992 134.008V71.996C143.992 44.428 166.42 22 193.988 22H334.855C362.423 22 384.851 44.428 384.851 71.996V197.929L362.966 176.044C358.67 171.748 351.705 171.748 347.409 176.044C343.114 180.34 343.114 187.305 347.409 191.601L388.073 232.265C392.173 236.516 399.529 236.516 403.63 232.265L444.294 191.601C448.588 187.304 448.589 180.34 444.293 176.044Z" fill="#BE46F7"/>
<path d="M395.852 435.758C372.97 435.758 354.354 417.142 354.354 394.26C354.354 371.378 372.97 352.762 395.852 352.762C418.734 352.762 437.35 371.378 437.35 394.26C437.35 417.142 418.734 435.758 395.852 435.758ZM395.852 374.762C385.101 374.762 376.354 383.509 376.354 394.26C376.354 405.011 385.101 413.758 395.852 413.758C406.603 413.758 415.35 405.011 415.35 394.26C415.35 383.508 406.603 374.762 395.852 374.762Z" fill="black"/>
<path d="M176.351 254.32C172.055 250.024 165.09 250.024 160.794 254.32L132.991 282.123L105.188 254.32C100.892 250.024 93.9274 250.024 89.6314 254.32C85.3364 258.616 85.3364 265.581 89.6314 269.877L121.99 302.236V419.671C121.99 425.746 126.915 430.671 132.99 430.671C139.065 430.671 143.99 425.746 143.99 419.671V302.236L176.349 269.877C180.646 265.58 180.646 258.615 176.351 254.32Z" fill="#BE46F7"/>
<path d="M132.992 124.023C59.66 124.023 0 183.683 0 257.015C0 291.102 12.925 323.509 36.395 348.267C55.537 368.459 66.079 393.548 66.079 418.911C66.079 419.039 66.094 419.163 66.098 419.291C66.094 419.418 66.079 419.542 66.079 419.671V470.501C66.079 493.383 84.695 511.999 107.577 511.999H158.407C181.289 511.999 199.905 493.383 199.905 470.501V419.671C199.905 419.543 199.89 419.418 199.886 419.291C199.89 419.164 199.905 419.04 199.905 418.911C199.905 393.548 210.447 368.459 229.589 348.267C253.059 323.509 265.984 291.102 265.984 257.015C265.983 183.683 206.324 124.023 132.992 124.023ZM177.905 470.5C177.905 481.251 169.158 489.998 158.407 489.998H107.577C96.826 489.998 88.079 481.251 88.079 470.5V430.67H177.905V470.5ZM213.623 333.132C193.132 354.748 180.84 381.245 178.374 408.671H87.609C85.144 381.245 72.852 354.748 52.361 333.132C32.782 312.478 22 285.446 22 257.015C22 195.814 71.79 146.023 132.992 146.023C194.194 146.023 243.984 195.814 243.984 257.015C243.983 285.446 233.201 312.478 213.623 333.132Z" fill="black"/>
</g>
<defs>
<clipPath id="clip0_176_718">
<rect width="512" height="512" fill="white"/>
</clipPath>
</defs>
</svg>
